<?xml version="1.0" encoding="UTF-8" standalone="no"?><svg xmlns="http://www.w3.org/2000/svg" xmlns:xlink="http://www.w3.org/1999/xlink" contentStyleType="text/css" height="374px" preserveAspectRatio="none" style="width:582px;height:374px;background:#FFFFFF;" version="1.1" viewBox="0 0 582 374" width="582px" zoomAndPan="magnify"><defs/><g><line style="stroke:#181818;stroke-width:1.5;" x1="32" x2="32" y1="64.1328" y2="84.1328"/><rect fill="#F1F1F1" height="34.1328" style="stroke:#181818;stroke-width:1.5;" width="44" x="10" y="84.1328"/><text fill="#000000" font-family="sans-serif" font-size="12" lengthAdjust="spacing" textLength="24" x="20" y="105.7344">/bin</text><line style="stroke:#181818;stroke-width:1.5;" x1="95.5" x2="95.5" y1="64.1328" y2="84.1328"/><rect fill="#F1F1F1" height="34.1328" style="stroke:#181818;stroke-width:1.5;" width="43" x="74" y="84.1328"/><text fill="#000000" font-family="sans-serif" font-size="12" lengthAdjust="spacing" textLength="23" x="84" y="105.7344">/etc</text><line style="stroke:#181818;stroke-width:1.5;" x1="95.5" x2="105.5" y1="150.332" y2="150.332"/><rect fill="#FFA500" height="34.1328" style="stroke:#181818;stroke-width:1.5;" width="51" x="105.5" y="133.2656"/><text fill="#000000" font-family="sans-serif" font-size="12" lengthAdjust="spacing" textLength="31" x="115.5" y="154.8672">nginx</text><line style="stroke:#181818;stroke-width:1.5;" x1="95.5" x2="105.5" y1="190.4648" y2="190.4648"/><text fill="#000000" font-family="sans-serif" font-size="12" lengthAdjust="spacing" textLength="30" x="105.5" y="195">hosts</text><line style="stroke:#181818;stroke-width:1.5;" x1="95.5" x2="95.5" y1="118.2656" y2="190.4648"/><line style="stroke:#181818;stroke-width:1.5;" x1="205.5" x2="205.5" y1="64.1328" y2="84.1328"/><rect fill="#CCCCCC" height="34.1328" style="stroke:#181818;stroke-width:1.5;" width="58" x="176.5" y="84.1328"/><text fill="#000000" font-family="sans-serif" font-size="12" lengthAdjust="spacing" textLength="38" x="186.5" y="105.7344">/home</text><line style="stroke:#181818;stroke-width:1.5;" x1="205.5" x2="215.5" y1="150.332" y2="150.332"/><rect fill="#CCCCCC" height="34.1328" style="stroke:#181818;stroke-width:1.5;" width="45" x="215.5" y="133.2656"/><text fill="#000000" font-family="sans-serif" font-size="12" lengthAdjust="spacing" textLength="25" x="225.5" y="154.8672">john</text><line style="stroke:#181818;stroke-width:1.5;" x1="205.5" x2="215.5" y1="199.4648" y2="199.4648"/><rect fill="#CCCCCC" height="34.1328" style="stroke:#181818;stroke-width:1.5;" width="45" x="215.5" y="182.3984"/><text fill="#000000" font-family="sans-serif" font-size="12" lengthAdjust="spacing" textLength="25" x="225.5" y="204">jane</text><line style="stroke:#181818;stroke-width:1.5;" x1="205.5" x2="215.5" y1="248.5977" y2="248.5977"/><rect fill="#CCFFFF" height="34.1328" style="stroke:#181818;stroke-width:1.5;" width="40" x="215.5" y="231.5313"/><text fill="#000000" font-family="sans-serif" font-size="12" lengthAdjust="spacing" textLength="20" x="225.5" y="253.1328">you</text><line style="stroke:#181818;stroke-width:1.5;" x1="235.5" x2="245.5" y1="297.7305" y2="297.7305"/><rect fill="#99FFFF" height="34.1328" style="stroke:#181818;stroke-width:1.5;" width="38" x="245.5" y="280.6641"/><text fill="#000000" font-family="sans-serif" font-size="12" lengthAdjust="spacing" textLength="18" x="255.5" y="302.2656">bin</text><line style="stroke:#181818;stroke-width:1.5;" x1="235.5" x2="245.5" y1="346.8633" y2="346.8633"/><rect fill="#FF9999" height="34.1328" style="stroke:#181818;stroke-width:1.5;" width="43" x="245.5" y="329.7969"/><text fill="#000000" font-family="sans-serif" font-size="12" lengthAdjust="spacing" textLength="23" x="255.5" y="351.3984">.ssh</text><line style="stroke:#181818;stroke-width:1.5;" x1="235.5" x2="235.5" y1="265.6641" y2="346.8633"/><line style="stroke:#181818;stroke-width:1.5;" x1="205.5" x2="205.5" y1="118.2656" y2="248.5977"/><line style="stroke:#181818;stroke-width:1.5;" x1="334.5" x2="334.5" y1="64.1328" y2="84.1328"/><rect fill="#F1F1F1" height="34.1328" style="stroke:#181818;stroke-width:1.5;" width="52" x="308.5" y="84.1328"/><text fill="#000000" font-family="sans-serif" font-size="12" lengthAdjust="spacing" textLength="32" x="318.5" y="105.7344">/local</text><line style="stroke:#181818;stroke-width:1.5;" x1="334.5" x2="344.5" y1="150.332" y2="150.332"/><rect fill="#FFFF00" height="34.1328" style="stroke:#181818;stroke-width:1.5;" width="83" x="344.5" y="133.2656"/><text fill="#000000" font-family="sans-serif" font-size="12" lengthAdjust="spacing" textLength="63" x="354.5" y="154.8672">/notesdata</text><line style="stroke:#181818;stroke-width:1.5;" x1="334.5" x2="334.5" y1="118.2656" y2="150.332"/><line style="stroke:#181818;stroke-width:1.5;" x1="470" x2="470" y1="64.1328" y2="84.1328"/><rect fill="#F1F1F1" height="34.1328" style="stroke:#181818;stroke-width:1.5;" width="45" x="447.5" y="84.1328"/><text fill="#000000" font-family="sans-serif" font-size="12" lengthAdjust="spacing" textLength="25" x="457.5" y="105.7344">/opt</text><line style="stroke:#181818;stroke-width:1.5;" x1="470" x2="480" y1="150.332" y2="150.332"/><rect fill="#FFFF00" height="34.1328" style="stroke:#181818;stroke-width:1.5;" width="36" x="480" y="133.2656"/><text fill="#000000" font-family="sans-serif" font-size="12" lengthAdjust="spacing" textLength="16" x="490" y="154.8672">hcl</text><line style="stroke:#181818;stroke-width:1.5;" x1="498" x2="508" y1="199.4648" y2="199.4648"/><rect fill="#FFFF00" height="34.1328" style="stroke:#181818;stroke-width:1.5;" width="63" x="508" y="182.3984"/><text fill="#000000" font-family="sans-serif" font-size="12" lengthAdjust="spacing" textLength="43" x="518" y="204">domino</text><line style="stroke:#181818;stroke-width:1.5;" x1="498" x2="508" y1="248.5977" y2="248.5977"/><rect fill="#FFFF00" height="34.1328" style="stroke:#181818;stroke-width:1.5;" width="49" x="508" y="231.5313"/><text fill="#000000" font-family="sans-serif" font-size="12" lengthAdjust="spacing" textLength="29" x="518" y="253.1328">keep</text><line style="stroke:#181818;stroke-width:1.5;" x1="498" x2="498" y1="167.3984" y2="248.5977"/><line style="stroke:#181818;stroke-width:1.5;" x1="470" x2="470" y1="118.2656" y2="150.332"/><line style="stroke:#181818;stroke-width:1.5;" x1="32" x2="470" y1="64.1328" y2="64.1328"/><rect fill="#F1F1F1" height="34.1328" style="stroke:#181818;stroke-width:1.5;" width="127" x="187.5" y="10"/><text fill="#000000" font-family="sans-serif" font-size="12" lengthAdjust="spacing" textLength="107" x="197.5" y="31.6016">/ Linux File System</text><line style="stroke:#181818;stroke-width:1.5;" x1="251" x2="251" y1="44.1328" y2="64.1328"/><!--MD5=[7083d3397f809b661571a89505feacf8]
@startwbs LinuxFileSystem
* / Linux File System
** /bin
** /etc
***[#orange] nginx
***_ hosts
**[#cccccc] /home
***[#cccccc] john
***[#cccccc] jane
***[#ccffff] you
****[#99ffff] bin
****[#ff9999] .ssh
** /local
***[#yellow] /notesdata
** /opt
***[#yellow] hcl
****[#yellow] domino
****[#yellow] keep
@endwbs

PlantUML version 1.2022.7(Tue Aug 23 01:01:30 SGT 2022)
(GPL source distribution)
Java Runtime: OpenJDK Runtime Environment
JVM: OpenJDK 64-Bit Server VM
Default Encoding: UTF-8
Language: en
Country: SG
--></g></svg>