<?xml version="1.0" encoding="UTF-8" standalone="no"?><svg xmlns="http://www.w3.org/2000/svg" xmlns:xlink="http://www.w3.org/1999/xlink" contentStyleType="text/css" height="424px" preserveAspectRatio="none" style="width:600px;height:424px;background:#FFFFFF;" version="1.1" viewBox="0 0 600 424" width="600px" zoomAndPan="magnify"><defs/><g><line style="stroke:#181818;stroke-width:1.5;" x1="58" x2="58" y1="64.1328" y2="84.1328"/><rect fill="#CCCCCC" height="34.1328" style="stroke:#181818;stroke-width:1.5;" width="96" x="10" y="84.1328"/><text fill="#000000" font-family="sans-serif" font-size="12" lengthAdjust="spacing" textLength="76" x="20" y="105.7344">/Applications</text><line style="stroke:#181818;stroke-width:1.5;" x1="148" x2="148" y1="64.1328" y2="84.1328"/><rect fill="#CCCCCC" height="34.1328" style="stroke:#181818;stroke-width:1.5;" width="44" x="126" y="84.1328"/><text fill="#000000" font-family="sans-serif" font-size="12" lengthAdjust="spacing" textLength="24" x="136" y="105.7344">/bin</text><line style="stroke:#181818;stroke-width:1.5;" x1="211.5" x2="211.5" y1="64.1328" y2="84.1328"/><rect fill="#F1F1F1" height="34.1328" style="stroke:#181818;stroke-width:1.5;" width="43" x="190" y="84.1328"/><text fill="#000000" font-family="sans-serif" font-size="12" lengthAdjust="spacing" textLength="23" x="200" y="105.7344">/etc</text><line style="stroke:#181818;stroke-width:1.5;" x1="211.5" x2="221.5" y1="150.332" y2="150.332"/><rect fill="#FFA500" height="34.1328" style="stroke:#181818;stroke-width:1.5;" width="51" x="221.5" y="133.2656"/><text fill="#000000" font-family="sans-serif" font-size="12" lengthAdjust="spacing" textLength="31" x="231.5" y="154.8672">nginx</text><line style="stroke:#181818;stroke-width:1.5;" x1="211.5" x2="221.5" y1="190.4648" y2="190.4648"/><text fill="#000000" font-family="sans-serif" font-size="12" lengthAdjust="spacing" textLength="30" x="221.5" y="195">hosts</text><line style="stroke:#181818;stroke-width:1.5;" x1="211.5" x2="211.5" y1="118.2656" y2="190.4648"/><line style="stroke:#181818;stroke-width:1.5;" x1="321.5" x2="321.5" y1="64.1328" y2="84.1328"/><rect fill="#CCCCCC" height="34.1328" style="stroke:#181818;stroke-width:1.5;" width="58" x="292.5" y="84.1328"/><text fill="#000000" font-family="sans-serif" font-size="12" lengthAdjust="spacing" textLength="38" x="302.5" y="105.7344">/Users</text><line style="stroke:#181818;stroke-width:1.5;" x1="321.5" x2="331.5" y1="150.332" y2="150.332"/><rect fill="#CCFFFF" height="34.1328" style="stroke:#181818;stroke-width:1.5;" width="40" x="331.5" y="133.2656"/><text fill="#000000" font-family="sans-serif" font-size="12" lengthAdjust="spacing" textLength="20" x="341.5" y="154.8672">you</text><line style="stroke:#181818;stroke-width:1.5;" x1="351.5" x2="361.5" y1="199.4648" y2="199.4648"/><rect fill="#99FFFF" height="34.1328" style="stroke:#181818;stroke-width:1.5;" width="38" x="361.5" y="182.3984"/><text fill="#000000" font-family="sans-serif" font-size="12" lengthAdjust="spacing" textLength="18" x="371.5" y="204">bin</text><line style="stroke:#181818;stroke-width:1.5;" x1="351.5" x2="361.5" y1="248.5977" y2="248.5977"/><rect fill="#99FFFF" height="34.1328" style="stroke:#181818;stroke-width:1.5;" width="43" x="361.5" y="231.5313"/><text fill="#000000" font-family="sans-serif" font-size="12" lengthAdjust="spacing" textLength="23" x="371.5" y="253.1328">.ssh</text><line style="stroke:#181818;stroke-width:1.5;" x1="351.5" x2="361.5" y1="297.7305" y2="297.7305"/><rect fill="#99FFFF" height="34.1328" style="stroke:#181818;stroke-width:1.5;" width="60" x="361.5" y="280.6641"/><text fill="#000000" font-family="sans-serif" font-size="12" lengthAdjust="spacing" textLength="40" x="371.5" y="302.2656">Library</text><line style="stroke:#181818;stroke-width:1.5;" x1="391.5" x2="401.5" y1="346.8633" y2="346.8633"/><rect fill="#99FFFF" height="34.1328" style="stroke:#181818;stroke-width:1.5;" width="133" x="401.5" y="329.7969"/><text fill="#000000" font-family="sans-serif" font-size="12" lengthAdjust="spacing" textLength="113" x="411.5" y="351.3984">Application Support</text><line style="stroke:#181818;stroke-width:1.5;" x1="468" x2="478" y1="395.9961" y2="395.9961"/><rect fill="#FFFF00" height="34.1328" style="stroke:#181818;stroke-width:1.5;" width="111" x="478" y="378.9297"/><text fill="#000000" font-family="sans-serif" font-size="12" lengthAdjust="spacing" textLength="91" x="488" y="400.5313">HCL Notes Data</text><line style="stroke:#181818;stroke-width:1.5;" x1="468" x2="468" y1="363.9297" y2="395.9961"/><line style="stroke:#181818;stroke-width:1.5;" x1="391.5" x2="391.5" y1="314.7969" y2="346.8633"/><line style="stroke:#181818;stroke-width:1.5;" x1="351.5" x2="351.5" y1="167.3984" y2="297.7305"/><line style="stroke:#181818;stroke-width:1.5;" x1="321.5" x2="321.5" y1="118.2656" y2="150.332"/><line style="stroke:#181818;stroke-width:1.5;" x1="58" x2="321.5" y1="64.1328" y2="64.1328"/><rect fill="#F1F1F1" height="34.1328" style="stroke:#181818;stroke-width:1.5;" width="136" x="121.75" y="10"/><text fill="#000000" font-family="sans-serif" font-size="12" lengthAdjust="spacing" textLength="116" x="131.75" y="31.6016">/ macOS File System</text><line style="stroke:#181818;stroke-width:1.5;" x1="189.75" x2="189.75" y1="44.1328" y2="64.1328"/><!--MD5=[829f9dc76b40b5af419fa9315c971d59]
@startwbs macosFileSystem
* / macOS File System
**[#cccccc] /Applications
**[#cccccc] /bin
** /etc
***[#orange] nginx
***_ hosts
**[#cccccc] /Users
***[#ccffff] you
****[#99ffff] bin
****[#99ffff] .ssh
****[#99ffff] Library
*****[#99ffff] Application Support
******[#yellow] HCL Notes Data
@endwbs

PlantUML version 1.2022.7(Tue Aug 23 01:01:30 SGT 2022)
(GPL source distribution)
Java Runtime: OpenJDK Runtime Environment
JVM: OpenJDK 64-Bit Server VM
Default Encoding: UTF-8
Language: en
Country: SG
--></g></svg>