<?xml version="1.0" encoding="UTF-8" standalone="no"?><svg xmlns="http://www.w3.org/2000/svg" xmlns:xlink="http://www.w3.org/1999/xlink" contentStyleType="text/css" height="522px" preserveAspectRatio="none" style="width:696px;height:522px;background:#FFFFFF;" version="1.1" viewBox="0 0 696 522" width="696px" zoomAndPan="magnify"><defs/><g><line style="stroke:#181818;stroke-width:1.5;" x1="63" x2="63" y1="64.1328" y2="84.1328"/><rect fill="#FFCCCC" height="34.1328" style="stroke:#181818;stroke-width:1.5;" width="106" x="10" y="84.1328"/><text fill="#000000" font-family="sans-serif" font-size="12" lengthAdjust="spacing" textLength="86" x="20" y="105.7344">\Program Data</text><line style="stroke:#181818;stroke-width:1.5;" x1="209.5" x2="209.5" y1="64.1328" y2="84.1328"/><rect fill="#CCCCCC" height="34.1328" style="stroke:#181818;stroke-width:1.5;" width="147" x="136" y="84.1328"/><text fill="#000000" font-family="sans-serif" font-size="12" lengthAdjust="spacing" textLength="127" x="146" y="105.7344">\Program Files [(x86)]</text><line style="stroke:#181818;stroke-width:1.5;" x1="332" x2="332" y1="64.1328" y2="84.1328"/><rect fill="#CCCCCC" height="34.1328" style="stroke:#181818;stroke-width:1.5;" width="58" x="303" y="84.1328"/><text fill="#000000" font-family="sans-serif" font-size="12" lengthAdjust="spacing" textLength="38" x="313" y="105.7344">\Users</text><line style="stroke:#181818;stroke-width:1.5;" x1="332" x2="342" y1="150.332" y2="150.332"/><rect fill="#F1F1F1" height="34.1328" style="stroke:#181818;stroke-width:1.5;" width="54" x="342" y="133.2656"/><text fill="#000000" font-family="sans-serif" font-size="12" lengthAdjust="spacing" textLength="34" x="352" y="154.8672">Public</text><line style="stroke:#181818;stroke-width:1.5;" x1="332" x2="342" y1="199.4648" y2="199.4648"/><rect fill="#CCFFFF" height="34.1328" style="stroke:#181818;stroke-width:1.5;" width="40" x="342" y="182.3984"/><text fill="#000000" font-family="sans-serif" font-size="12" lengthAdjust="spacing" textLength="20" x="352" y="204">you</text><line style="stroke:#181818;stroke-width:1.5;" x1="362" x2="372" y1="248.5977" y2="248.5977"/><rect fill="#FF9999" height="34.1328" style="stroke:#181818;stroke-width:1.5;" width="43" x="372" y="231.5313"/><text fill="#000000" font-family="sans-serif" font-size="12" lengthAdjust="spacing" textLength="23" x="382" y="253.1328">.ssh</text><line style="stroke:#181818;stroke-width:1.5;" x1="362" x2="372" y1="297.7305" y2="297.7305"/><rect fill="#CCFFFF" height="34.1328" style="stroke:#181818;stroke-width:1.5;" width="71" x="372" y="280.6641"/><text fill="#000000" font-family="sans-serif" font-size="12" lengthAdjust="spacing" textLength="51" x="382" y="302.2656">AppData</text><line style="stroke:#181818;stroke-width:1.5;" x1="407.5" x2="417.5" y1="346.8633" y2="346.8633"/><rect fill="#CCFFFF" height="34.1328" style="stroke:#181818;stroke-width:1.5;" width="49" x="417.5" y="329.7969"/><text fill="#000000" font-family="sans-serif" font-size="12" lengthAdjust="spacing" textLength="29" x="427.5" y="351.3984">Local</text><line style="stroke:#181818;stroke-width:1.5;" x1="407.5" x2="407.5" y1="314.7969" y2="346.8633"/><line style="stroke:#181818;stroke-width:1.5;" x1="362" x2="372" y1="395.9961" y2="395.9961"/><rect fill="#CCFFFF" height="34.1328" style="stroke:#181818;stroke-width:1.5;" width="45" x="372" y="378.9297"/><text fill="#000000" font-family="sans-serif" font-size="12" lengthAdjust="spacing" textLength="25" x="382" y="400.5313">cmd</text><line style="stroke:#181818;stroke-width:1.5;" x1="362" x2="372" y1="445.1289" y2="445.1289"/><rect fill="#CCFFFF" height="34.1328" style="stroke:#181818;stroke-width:1.5;" width="84" x="372" y="428.0625"/><text fill="#000000" font-family="sans-serif" font-size="12" lengthAdjust="spacing" textLength="64" x="382" y="449.6641">Documents</text><line style="stroke:#181818;stroke-width:1.5;" x1="362" x2="372" y1="494.2617" y2="494.2617"/><rect fill="#CCFFFF" height="34.1328" style="stroke:#181818;stroke-width:1.5;" width="83" x="372" y="477.1953"/><text fill="#000000" font-family="sans-serif" font-size="12" lengthAdjust="spacing" textLength="63" x="382" y="498.7969">Downloads</text><line style="stroke:#181818;stroke-width:1.5;" x1="362" x2="362" y1="216.5313" y2="494.2617"/><line style="stroke:#181818;stroke-width:1.5;" x1="332" x2="332" y1="118.2656" y2="199.4648"/><line style="stroke:#181818;stroke-width:1.5;" x1="524.5" x2="524.5" y1="64.1328" y2="84.1328"/><rect fill="#F1F1F1" height="34.1328" style="stroke:#181818;stroke-width:1.5;" width="76" x="486.5" y="84.1328"/><text fill="#000000" font-family="sans-serif" font-size="12" lengthAdjust="spacing" textLength="56" x="496.5" y="105.7344">\Windows</text><line style="stroke:#181818;stroke-width:1.5;" x1="524.5" x2="534.5" y1="150.332" y2="150.332"/><rect fill="#F1F1F1" height="34.1328" style="stroke:#181818;stroke-width:1.5;" width="76" x="534.5" y="133.2656"/><text fill="#000000" font-family="sans-serif" font-size="12" lengthAdjust="spacing" textLength="56" x="544.5" y="154.8672">System32</text><line style="stroke:#181818;stroke-width:1.5;" x1="572.5" x2="582.5" y1="199.4648" y2="199.4648"/><rect fill="#F1F1F1" height="34.1328" style="stroke:#181818;stroke-width:1.5;" width="60" x="582.5" y="182.3984"/><text fill="#000000" font-family="sans-serif" font-size="12" lengthAdjust="spacing" textLength="40" x="592.5" y="204">drivers</text><line style="stroke:#181818;stroke-width:1.5;" x1="612.5" x2="622.5" y1="248.5977" y2="248.5977"/><rect fill="#F1F1F1" height="34.1328" style="stroke:#181818;stroke-width:1.5;" width="37" x="622.5" y="231.5313"/><text fill="#000000" font-family="sans-serif" font-size="12" lengthAdjust="spacing" textLength="17" x="632.5" y="253.1328">etc</text><line style="stroke:#181818;stroke-width:1.5;" x1="641" x2="651" y1="288.7305" y2="288.7305"/><text fill="#000000" font-family="sans-serif" font-size="12" lengthAdjust="spacing" textLength="30" x="651" y="293.2656">hosts</text><line style="stroke:#181818;stroke-width:1.5;" x1="641" x2="641" y1="265.6641" y2="288.7305"/><line style="stroke:#181818;stroke-width:1.5;" x1="612.5" x2="612.5" y1="216.5313" y2="248.5977"/><line style="stroke:#181818;stroke-width:1.5;" x1="572.5" x2="572.5" y1="167.3984" y2="199.4648"/><line style="stroke:#181818;stroke-width:1.5;" x1="524.5" x2="524.5" y1="118.2656" y2="150.332"/><line style="stroke:#181818;stroke-width:1.5;" x1="63" x2="524.5" y1="64.1328" y2="64.1328"/><rect fill="#F1F1F1" height="34.1328" style="stroke:#181818;stroke-width:1.5;" width="38" x="274.75" y="10"/><text fill="#000000" font-family="sans-serif" font-size="12" lengthAdjust="spacing" textLength="18" x="284.75" y="31.6016">C:\</text><line style="stroke:#181818;stroke-width:1.5;" x1="293.75" x2="293.75" y1="44.1328" y2="64.1328"/><!--MD5=[f7594e57aa893cd4ecd2590baa687758]
@startwbs WindowsFileSystem
* C:\\
**[#ffcccc] \\Program Data
**[#cccccc] \\Program Files [(x86)]
**[#cccccc] \\Users
*** Public
***[#ccffff] you
****[#ff9999] .ssh
****[#ccffff] AppData
*****[#ccffff] Local
****[#ccffff] cmd
****[#ccffff] Documents
****[#ccffff] Downloads
** \\Windows
*** System32
**** drivers
***** etc
******_ hosts
@endwbs

PlantUML version 1.2022.7(Tue Aug 23 01:01:30 SGT 2022)
(GPL source distribution)
Java Runtime: OpenJDK Runtime Environment
JVM: OpenJDK 64-Bit Server VM
Default Encoding: UTF-8
Language: en
Country: SG
--></g></svg>