<?xml version="1.0" encoding="UTF-8" standalone="no"?><svg xmlns="http://www.w3.org/2000/svg" xmlns:xlink="http://www.w3.org/1999/xlink" contentScriptType="application/ecmascript" contentStyleType="text/css" height="424px" preserveAspectRatio="none" style="width:482px;height:424px;background:#FFFFFF;" version="1.1" viewBox="0 0 482 424" width="482px" zoomAndPan="magnify"><defs><filter height="300%" id="f1arq21zqd413a" width="300%" x="-1" y="-1"><feGaussianBlur result="blurOut" stdDeviation="2.0"/><feColorMatrix in="blurOut" result="blurOut2" type="matrix" values="0 0 0 0 0 0 0 0 0 0 0 0 0 0 0 0 0 0 .4 0"/><feOffset dx="4.0" dy="4.0" in="blurOut2" result="blurOut3"/><feBlend in="SourceGraphic" in2="blurOut3" mode="normal"/></filter></defs><g><line style="stroke:#A80036;stroke-width:1.0;stroke-dasharray:5.0,5.0;" x1="36" x2="36" y1="88.4883" y2="339.6621"/><line style="stroke:#A80036;stroke-width:1.0;stroke-dasharray:5.0,5.0;" x1="145" x2="145" y1="88.4883" y2="339.6621"/><line style="stroke:#A80036;stroke-width:1.0;stroke-dasharray:5.0,5.0;" x1="251" x2="251" y1="88.4883" y2="339.6621"/><line style="stroke:#A80036;stroke-width:1.0;stroke-dasharray:5.0,5.0;" x1="337.5" x2="337.5" y1="88.4883" y2="339.6621"/><line style="stroke:#A80036;stroke-width:1.0;stroke-dasharray:5.0,5.0;" x1="446" x2="446" y1="88.4883" y2="339.6621"/><text fill="#000000" font-family="sans-serif" font-size="14" lengthAdjust="spacing" textLength="57" x="5" y="85.5352">Big boss</text><ellipse cx="36.5" cy="15" fill="#FEFECE" filter="url(#f1arq21zqd413a)" rx="8" ry="8" style="stroke:#A80036;stroke-width:2.0;"/><path d="M36.5,23 L36.5,50 M23.5,31 L49.5,31 M36.5,50 L23.5,65 M36.5,50 L49.5,65 " fill="none" filter="url(#f1arq21zqd413a)" style="stroke:#A80036;stroke-width:2.0;"/><text fill="#000000" font-family="sans-serif" font-size="14" lengthAdjust="spacing" textLength="57" x="5" y="352.1973">Big boss</text><ellipse cx="36.5" cy="365.1504" fill="#FEFECE" filter="url(#f1arq21zqd413a)" rx="8" ry="8" style="stroke:#A80036;stroke-width:2.0;"/><path d="M36.5,373.1504 L36.5,400.1504 M23.5,381.1504 L49.5,381.1504 M36.5,400.1504 L23.5,415.1504 M36.5,400.1504 L49.5,415.1504 " fill="none" filter="url(#f1arq21zqd413a)" style="stroke:#A80036;stroke-width:2.0;"/><path d="M118,62 L173,62 C178,62 178,75.2441 178,75.2441 C178,75.2441 178,88.4883 173,88.4883 L118,88.4883 C113,88.4883 113,75.2441 113,75.2441 C113,75.2441 113,62 118,62 " fill="#FEFECE" filter="url(#f1arq21zqd413a)" style="stroke:#A80036;stroke-width:2.0;"/><path d="M173,62 C168,62 168,75.2441 168,75.2441 C168,88.4883 173,88.4883 173,88.4883 " fill="none" style="stroke:#A80036;stroke-width:2.0;"/><text fill="#000000" font-family="sans-serif" font-size="14" lengthAdjust="spacing" textLength="45" x="118" y="80.5352">Queue</text><path d="M118,338.6621 L173,338.6621 C178,338.6621 178,351.9063 178,351.9063 C178,351.9063 178,365.1504 173,365.1504 L118,365.1504 C113,365.1504 113,351.9063 113,351.9063 C113,351.9063 113,338.6621 118,338.6621 " fill="#FEFECE" filter="url(#f1arq21zqd413a)" style="stroke:#A80036;stroke-width:2.0;"/><path d="M173,338.6621 C168,338.6621 168,351.9063 168,351.9063 C168,365.1504 173,365.1504 173,365.1504 " fill="none" style="stroke:#A80036;stroke-width:2.0;"/><text fill="#000000" font-family="sans-serif" font-size="14" lengthAdjust="spacing" textLength="45" x="118" y="357.1973">Queue</text><text fill="#000000" font-family="sans-serif" font-size="14" lengthAdjust="spacing" textLength="69" x="214" y="85.5352">Developer</text><ellipse cx="251.5" cy="15" fill="#FEFECE" filter="url(#f1arq21zqd413a)" rx="8" ry="8" style="stroke:#A80036;stroke-width:2.0;"/><path d="M251.5,23 L251.5,50 M238.5,31 L264.5,31 M251.5,50 L238.5,65 M251.5,50 L264.5,65 " fill="none" filter="url(#f1arq21zqd413a)" style="stroke:#A80036;stroke-width:2.0;"/><text fill="#000000" font-family="sans-serif" font-size="14" lengthAdjust="spacing" textLength="69" x="214" y="352.1973">Developer</text><ellipse cx="251.5" cy="365.1504" fill="#FEFECE" filter="url(#f1arq21zqd413a)" rx="8" ry="8" style="stroke:#A80036;stroke-width:2.0;"/><path d="M251.5,373.1504 L251.5,400.1504 M238.5,381.1504 L264.5,381.1504 M251.5,400.1504 L238.5,415.1504 M251.5,400.1504 L264.5,415.1504 " fill="none" filter="url(#f1arq21zqd413a)" style="stroke:#A80036;stroke-width:2.0;"/><text fill="#000000" font-family="sans-serif" font-size="14" lengthAdjust="spacing" textLength="40" x="314.5" y="85.5352">Magic</text><ellipse cx="337.5" cy="56" fill="#FEFECE" filter="url(#f1arq21zqd413a)" rx="12" ry="12" style="stroke:#A80036;stroke-width:2.0;"/><polygon fill="#A80036" points="333.5,44,339.5,39,337.5,44,339.5,49,333.5,44" style="stroke:#A80036;stroke-width:1.0;"/><text fill="#000000" font-family="sans-serif" font-size="14" lengthAdjust="spacing" textLength="40" x="314.5" y="352.1973">Magic</text><ellipse cx="337.5" cy="371.1504" fill="#FEFECE" filter="url(#f1arq21zqd413a)" rx="12" ry="12" style="stroke:#A80036;stroke-width:2.0;"/><polygon fill="#A80036" points="333.5,359.1504,339.5,354.1504,337.5,359.1504,339.5,364.1504,333.5,359.1504" style="stroke:#A80036;stroke-width:1.0;"/><text fill="#000000" font-family="sans-serif" font-size="14" lengthAdjust="spacing" textLength="63" x="412" y="85.5352">Database</text><path d="M428.5,36 C428.5,26 446.5,26 446.5,26 C446.5,26 464.5,26 464.5,36 L464.5,62 C464.5,72 446.5,72 446.5,72 C446.5,72 428.5,72 428.5,62 L428.5,36 " fill="#FEFECE" filter="url(#f1arq21zqd413a)" style="stroke:#000000;stroke-width:1.5;"/><path d="M428.5,36 C428.5,46 446.5,46 446.5,46 C446.5,46 464.5,46 464.5,36 " fill="none" style="stroke:#000000;stroke-width:1.5;"/><text fill="#000000" font-family="sans-serif" font-size="14" lengthAdjust="spacing" textLength="63" x="412" y="352.1973">Database</text><path d="M428.5,365.1504 C428.5,355.1504 446.5,355.1504 446.5,355.1504 C446.5,355.1504 464.5,355.1504 464.5,365.1504 L464.5,391.1504 C464.5,401.1504 446.5,401.1504 446.5,401.1504 C446.5,401.1504 428.5,401.1504 428.5,391.1504 L428.5,365.1504 " fill="#FEFECE" filter="url(#f1arq21zqd413a)" style="stroke:#000000;stroke-width:1.5;"/><path d="M428.5,365.1504 C428.5,375.1504 446.5,375.1504 446.5,375.1504 C446.5,375.1504 464.5,375.1504 464.5,365.1504 " fill="none" style="stroke:#000000;stroke-width:1.5;"/><polygon fill="#A80036" points="133.5,115.7988,143.5,119.7988,133.5,123.7988,137.5,119.7988" style="stroke:#A80036;stroke-width:1.0;"/><line style="stroke:#A80036;stroke-width:1.0;" x1="36.5" x2="139.5" y1="119.7988" y2="119.7988"/><text fill="#000000" font-family="sans-serif" font-size="13" lengthAdjust="spacing" textLength="85" x="43.5" y="115.0566">Feed problem</text><polygon fill="#A80036" points="239.5,145.1094,249.5,149.1094,239.5,153.1094,243.5,149.1094" style="stroke:#A80036;stroke-width:1.0;"/><line style="stroke:#A80036;stroke-width:1.0;" x1="145.5" x2="245.5" y1="149.1094" y2="149.1094"/><text fill="#000000" font-family="sans-serif" font-size="13" lengthAdjust="spacing" textLength="82" x="152.5" y="144.3672">Pick problem</text><polygon fill="#A80036" points="325.5,174.4199,335.5,178.4199,325.5,182.4199,329.5,178.4199" style="stroke:#A80036;stroke-width:1.0;"/><line style="stroke:#A80036;stroke-width:1.0;" x1="251.5" x2="331.5" y1="178.4199" y2="178.4199"/><text fill="#000000" font-family="sans-serif" font-size="13" lengthAdjust="spacing" textLength="62" x="258.5" y="173.6777">Cast spell</text><line style="stroke:#A80036;stroke-width:1.0;" x1="337.5" x2="379.5" y1="207.7305" y2="207.7305"/><line style="stroke:#A80036;stroke-width:1.0;" x1="379.5" x2="379.5" y1="207.7305" y2="220.7305"/><line style="stroke:#A80036;stroke-width:1.0;" x1="338.5" x2="379.5" y1="220.7305" y2="220.7305"/><polygon fill="#A80036" points="348.5,216.7305,338.5,220.7305,348.5,224.7305,344.5,220.7305" style="stroke:#A80036;stroke-width:1.0;"/><text fill="#000000" font-family="sans-serif" font-size="13" lengthAdjust="spacing" textLength="95" x="344.5" y="202.9883">magic happens</text><line style="stroke:#A80036;stroke-width:1.0;" x1="337.5" x2="379.5" y1="250.041" y2="250.041"/><line style="stroke:#A80036;stroke-width:1.0;" x1="379.5" x2="379.5" y1="250.041" y2="263.041"/><line style="stroke:#A80036;stroke-width:1.0;" x1="338.5" x2="379.5" y1="263.041" y2="263.041"/><polygon fill="#A80036" points="348.5,259.041,338.5,263.041,348.5,267.041,344.5,263.041" style="stroke:#A80036;stroke-width:1.0;"/><text fill="#000000" font-family="sans-serif" font-size="13" lengthAdjust="spacing" textLength="95" x="344.5" y="245.2988">magic happens</text><polygon fill="#A80036" points="434.5,288.3516,444.5,292.3516,434.5,296.3516,438.5,292.3516" style="stroke:#A80036;stroke-width:1.0;"/><line style="stroke:#A80036;stroke-width:1.0;" x1="337.5" x2="440.5" y1="292.3516" y2="292.3516"/><text fill="#000000" font-family="sans-serif" font-size="13" lengthAdjust="spacing" textLength="52" x="344.5" y="287.6094">solution</text><polygon fill="#A80036" points="47.5,317.6621,37.5,321.6621,47.5,325.6621,43.5,321.6621" style="stroke:#A80036;stroke-width:1.0;"/><line style="stroke:#A80036;stroke-width:1.0;" x1="41.5" x2="250.5" y1="321.6621" y2="321.6621"/><text fill="#000000" font-family="sans-serif" font-size="13" lengthAdjust="spacing" textLength="95" x="53.5" y="316.9199">Report success</text><!--MD5=[a8f19bb247392d6f1a34eeb4f64c792e]
@startuml bossloves
actor  "Big boss" as bb
queue Queue as q
actor  Developer as dev
control Magic as mm
database  Database as db

bb -> q : Feed problem 
q -> dev : Pick problem
dev -> mm : Cast spell
mm -> mm : magic happens
mm -> mm : magic happens
mm -> db : solution
dev -> bb : Report success
@enduml

PlantUML version 1.2022.0(Wed Jan 12 00:16:42 SGT 2022)
(GPL source distribution)
Java Runtime: OpenJDK Runtime Environment
JVM: Eclipse OpenJ9 VM
Default Encoding: UTF-8
Language: en
Country: US
--></g></svg>