<?xml version="1.0" encoding="UTF-8" standalone="no"?><svg xmlns="http://www.w3.org/2000/svg" xmlns:xlink="http://www.w3.org/1999/xlink" contentStyleType="text/css" height="389px" preserveAspectRatio="none" style="width:734px;height:389px;background:#FFFFFF;" version="1.1" viewBox="0 0 734 389" width="734px" zoomAndPan="magnify"><defs/><g><line style="stroke:#181818;stroke-width:1.5;" x1="33" x2="33" y1="64.1328" y2="84.1328"/><rect fill="#66FFFF" height="34.1328" style="stroke:#181818;stroke-width:1.5;" width="46" x="10" y="84.1328"/><text fill="#000000" font-family="sans-serif" font-size="12" lengthAdjust="spacing" textLength="26" x="20" y="105.7344">save</text><line style="stroke:#181818;stroke-width:1.5;" x1="33" x2="43" y1="150.332" y2="150.332"/><rect fill="#F1F1F1" height="34.1328" style="stroke:#181818;stroke-width:1.5;" width="48" x="43" y="133.2656"/><text fill="#000000" font-family="sans-serif" font-size="12" lengthAdjust="spacing" textLength="28" x="53" y="154.8672">none</text><line style="stroke:#181818;stroke-width:1.5;" x1="33" x2="43" y1="199.4648" y2="199.4648"/><rect fill="#F1F1F1" height="34.1328" style="stroke:#181818;stroke-width:1.5;" width="40" x="43" y="182.3984"/><text fill="#000000" font-family="sans-serif" font-size="12" lengthAdjust="spacing" textLength="20" x="53" y="204">self</text><line style="stroke:#181818;stroke-width:1.5;" x1="33" x2="43" y1="248.5977" y2="248.5977"/><rect fill="#F1F1F1" height="34.1328" style="stroke:#181818;stroke-width:1.5;" width="99" x="43" y="231.5313"/><text fill="#000000" font-family="sans-serif" font-size="12" lengthAdjust="spacing" textLength="79" x="53" y="253.1328">stric-dynamic</text><line style="stroke:#181818;stroke-width:1.5;" x1="33" x2="43" y1="297.7305" y2="297.7305"/><rect fill="#F1F1F1" height="34.1328" style="stroke:#181818;stroke-width:1.5;" width="105" x="43" y="280.6641"/><text fill="#000000" font-family="sans-serif" font-size="12" lengthAdjust="spacing" textLength="85" x="53" y="302.2656">report-sample</text><line style="stroke:#181818;stroke-width:1.5;" x1="33" x2="33" y1="118.2656" y2="297.7305"/><line style="stroke:#181818;stroke-width:1.5;" x1="198" x2="198" y1="64.1328" y2="84.1328"/><rect fill="#FFC0CB" height="34.1328" style="stroke:#181818;stroke-width:1.5;" width="60" x="168" y="84.1328"/><text fill="#000000" font-family="sans-serif" font-size="12" lengthAdjust="spacing" textLength="40" x="178" y="105.7344">unsave</text><line style="stroke:#181818;stroke-width:1.5;" x1="198" x2="208" y1="150.332" y2="150.332"/><rect fill="#F1F1F1" height="34.1328" style="stroke:#181818;stroke-width:1.5;" width="97" x="208" y="133.2656"/><a href="https://developer.mozilla.org/en-US/docs/Web/HTTP/Headers/Content-Security-Policy/script-src#unsafe_inline_script" target="_top" title="https://developer.mozilla.org/en-US/docs/Web/HTTP/Headers/Content-Security-Policy/script-src#unsafe_inline_script" xlink:actuate="onRequest" xlink:href="https://developer.mozilla.org/en-US/docs/Web/HTTP/Headers/Content-Security-Policy/script-src#unsafe_inline_script" xlink:show="new" xlink:title="https://developer.mozilla.org/en-US/docs/Web/HTTP/Headers/Content-Security-Policy/script-src#unsafe_inline_script" xlink:type="simple"><text fill="#0000FF" font-family="sans-serif" font-size="12" lengthAdjust="spacing" text-decoration="underline" textLength="77" x="218" y="154.8672">unsave-inline</text></a><line style="stroke:#181818;stroke-width:1.5;" x1="198" x2="208" y1="199.4648" y2="199.4648"/><rect fill="#F1F1F1" height="34.1328" style="stroke:#181818;stroke-width:1.5;" width="88" x="208" y="182.3984"/><text fill="#000000" font-family="sans-serif" font-size="12" lengthAdjust="spacing" textLength="68" x="218" y="204">unsafe-eval</text><line style="stroke:#181818;stroke-width:1.5;" x1="198" x2="208" y1="248.5977" y2="248.5977"/><rect fill="#F1F1F1" height="34.1328" style="stroke:#181818;stroke-width:1.5;" width="105" x="208" y="231.5313"/><text fill="#000000" font-family="sans-serif" font-size="12" lengthAdjust="spacing" textLength="85" x="218" y="253.1328">unsafe-hashes</text><line style="stroke:#181818;stroke-width:1.5;" x1="198" x2="208" y1="300.4141" y2="300.4141"/><rect fill="#F1F1F1" height="39.5" style="stroke:#181818;stroke-width:1.5;" width="178" x="208" y="280.6641"/><text fill="#000000" font-family="sans-serif" font-size="12" lengthAdjust="spacing" textLength="132" x="218" y="307.6328">unsafe-allow-redirects</text><path d="M365.2815,297.8711 L370.735,292.4166 L374.2155,295.8976 L368.7615,301.3516 " fill="#CCD6DD" style="stroke:;stroke-width:0.0;stroke-dasharray:;"/><path d="M362.0515,307.8636 C359.25,307.6641 358.75,305.6951 358.8175,304.6301 C358.9785,302.0951 366.618,296.3546 366.618,296.3546 L372.8765,297.3196 C372.877,297.3196 364.182,308.0156 362.0515,307.8636 " fill="#68E090" style="stroke:;stroke-width:0.0;stroke-dasharray:;"/><path d="M374.163,292.5181 C372.7025,291.0576 371.052,290.3396 370.477,290.9151 C370.4705,290.9216 370.466,290.9306 370.46,290.9371 C370.457,290.9401 370.4525,290.9411 370.4495,290.9441 L359.1475,302.2461 C358.4415,302.9521 358.0525,303.8911 358.0525,304.8901 C358.0525,305.8886 358.4415,306.8276 359.1475,307.5336 C359.854,308.2401 360.793,308.6286 361.7915,308.6286 C362.7905,308.6286 363.729,308.2401 364.435,307.5341 L375.737,296.2321 C375.7405,296.2286 375.7415,296.2241 375.7445,296.2206 C375.751,296.2146 375.7595,296.2106 375.766,296.2041 C376.3415,295.6291 375.6235,293.9786 374.163,292.5181 M363.375,306.4736 C362.952,306.8966 362.39,307.1291 361.792,307.1291 C361.194,307.1291 360.6315,306.8961 360.2085,306.4731 C359.7855,306.0501 359.5525,305.4881 359.5525,304.8896 C359.5525,304.2916 359.7855,303.7296 360.208,303.3066 L370.706,292.8091 C371.017,293.3811 371.486,294.0061 372.0805,294.6011 C372.675,295.1956 373.3005,295.6646 373.8725,295.9756 L363.375,306.4736 " fill="#8899A6" style="stroke:;stroke-width:0.0;stroke-dasharray:;"/><path d="M372.598,297.2361 C372.569,297.4256 371.2845,297.6116 369.7525,297.4076 C368.221,297.2036 367.0115,296.7961 367.051,296.4976 C367.091,296.1991 368.3645,296.1221 369.8965,296.3261 C371.4285,296.5301 372.644,296.9381 372.598,297.2361 M363.42,302.2876 C363.265,302.4426 363.0135,302.4426 362.8585,302.2876 C362.7035,302.1326 362.7035,301.8811 362.8585,301.7261 C363.0135,301.5711 363.265,301.5711 363.42,301.7261 C363.575,301.8811 363.575,302.1326 363.42,302.2876 M365.0785,303.5951 C364.825,303.8486 364.4145,303.8481 364.161,303.5951 C363.908,303.3421 363.908,302.9311 364.161,302.6781 C364.4145,302.4246 364.825,302.4251 365.078,302.6781 C365.3315,302.9311 365.332,303.3416 365.0785,303.5951 M365.917,300.9331 C365.679,301.1711 365.292,301.1711 365.054,300.9331 C364.816,300.6951 364.816,300.3086 365.054,300.0701 C365.292,299.8321 365.6785,299.8316 365.9165,300.0701 C366.1555,300.3086 366.1555,300.6951 365.917,300.9331 M362.483,305.3621 C362.1925,305.6526 361.721,305.6526 361.4305,305.3621 C361.1395,305.0711 361.14,304.6001 361.4305,304.3096 C361.721,304.0191 362.192,304.0191 362.483,304.3096 C362.7735,304.6001 362.774,305.0711 362.483,305.3621 M368.181,300.7831 C367.9745,300.9896 367.6395,300.9896 367.433,300.7831 C367.2265,300.5766 367.227,300.2416 367.4335,300.0351 C367.6405,299.8281 367.975,299.8281 368.1815,300.0346 C368.388,300.2416 368.388,300.5761 368.181,300.7831 M367.5775,298.6391 C367.4425,298.7741 367.2235,298.7741 367.088,298.6391 C366.953,298.5041 366.953,298.2851 367.088,298.1496 C367.223,298.0146 367.442,298.0141 367.5775,298.1496 C367.7125,298.2851 367.7125,298.5041 367.5775,298.6391 " fill="#17BF63" style="stroke:;stroke-width:0.0;stroke-dasharray:;"/><ellipse cx="371.5619" cy="304.1712" fill="#CCD6DD" rx="0.4186" ry="1.7136" style="stroke:#CCD6DD;stroke-width:1.5;"/><line style="stroke:#181818;stroke-width:1.5;" x1="198" x2="198" y1="118.2656" y2="300.4141"/><line style="stroke:#181818;stroke-width:1.5;" x1="432" x2="432" y1="64.1328" y2="84.1328"/><rect fill="#66FF66" height="34.1328" style="stroke:#181818;stroke-width:1.5;" width="52" x="406" y="84.1328"/><a href="https://developer.mozilla.org/en-US/docs/Learn/Common_questions/What_is_a_URL" target="_top" title="https://developer.mozilla.org/en-US/docs/Learn/Common_questions/What_is_a_URL" xlink:actuate="onRequest" xlink:href="https://developer.mozilla.org/en-US/docs/Learn/Common_questions/What_is_a_URL" xlink:show="new" xlink:title="https://developer.mozilla.org/en-US/docs/Learn/Common_questions/What_is_a_URL" xlink:type="simple"><text fill="#0000FF" font-family="sans-serif" font-size="12" lengthAdjust="spacing" text-decoration="underline" textLength="32" x="416" y="105.7344">Hosts</text></a><line style="stroke:#181818;stroke-width:1.5;" x1="432" x2="442" y1="157.3984" y2="157.3984"/><rect fill="#F1F1F1" height="48.2656" style="stroke:#181818;stroke-width:1.5;" width="97" x="442" y="133.2656"/><text fill="#000000" font-family="sans-serif" font-size="12" lengthAdjust="spacing" textLength="77" x="452" y="154.8672">fully qualified</text><text fill="#000000" font-family="sans-serif" font-size="12" lengthAdjust="spacing" textLength="57" x="452" y="169">(incl path)</text><line style="stroke:#181818;stroke-width:1.5;" x1="432" x2="442" y1="213.5977" y2="213.5977"/><rect fill="#F1F1F1" height="34.1328" style="stroke:#181818;stroke-width:1.5;" width="79" x="442" y="196.5313"/><text fill="#000000" font-family="sans-serif" font-size="12" lengthAdjust="spacing" textLength="59" x="452" y="218.1328">wild cards</text><line style="stroke:#181818;stroke-width:1.5;" x1="432" x2="442" y1="262.7305" y2="262.7305"/><rect fill="#F1F1F1" height="34.1328" style="stroke:#181818;stroke-width:1.5;" width="119" x="442" y="245.6641"/><text fill="#000000" font-family="sans-serif" font-size="12" lengthAdjust="spacing" textLength="99" x="452" y="267.2656">../ for directories</text><line style="stroke:#181818;stroke-width:1.5;" x1="432" x2="442" y1="311.8633" y2="311.8633"/><rect fill="#F1F1F1" height="34.1328" style="stroke:#181818;stroke-width:1.5;" width="67" x="442" y="294.7969"/><text fill="#000000" font-family="sans-serif" font-size="12" lengthAdjust="spacing" textLength="47" x="452" y="316.3984">nonce-*</text><line style="stroke:#181818;stroke-width:1.5;" x1="432" x2="442" y1="360.9961" y2="360.9961"/><rect fill="#F1F1F1" height="34.1328" style="stroke:#181818;stroke-width:1.5;" width="59" x="442" y="343.9297"/><text fill="#000000" font-family="sans-serif" font-size="12" lengthAdjust="spacing" textLength="39" x="452" y="365.5313">sha*-*</text><line style="stroke:#181818;stroke-width:1.5;" x1="432" x2="432" y1="118.2656" y2="360.9961"/><line style="stroke:#181818;stroke-width:1.5;" x1="613" x2="613" y1="64.1328" y2="84.1328"/><rect fill="#F1F1F1" height="34.1328" style="stroke:#181818;stroke-width:1.5;" width="64" x="581" y="84.1328"/><text fill="#000000" font-family="sans-serif" font-size="12" lengthAdjust="spacing" textLength="44" x="591" y="105.7344">scheme</text><line style="stroke:#181818;stroke-width:1.5;" x1="613" x2="623" y1="150.332" y2="150.332"/><rect fill="#F1F1F1" height="34.1328" style="stroke:#181818;stroke-width:1.5;" width="53" x="623" y="133.2656"/><text fill="#000000" font-family="sans-serif" font-size="12" lengthAdjust="spacing" textLength="33" x="633" y="154.8672">https:</text><line style="stroke:#181818;stroke-width:1.5;" x1="613" x2="623" y1="199.4648" y2="199.4648"/><rect fill="#F1F1F1" height="34.1328" style="stroke:#181818;stroke-width:1.5;" width="50" x="623" y="182.3984"/><a href="https://developer.mozilla.org/en-US/docs/Web/HTTP/Basics_of_HTTP/Data_URLs" target="_top" title="https://developer.mozilla.org/en-US/docs/Web/HTTP/Basics_of_HTTP/Data_URLs" xlink:actuate="onRequest" xlink:href="https://developer.mozilla.org/en-US/docs/Web/HTTP/Basics_of_HTTP/Data_URLs" xlink:show="new" xlink:title="https://developer.mozilla.org/en-US/docs/Web/HTTP/Basics_of_HTTP/Data_URLs" xlink:type="simple"><text fill="#0000FF" font-family="sans-serif" font-size="12" lengthAdjust="spacing" text-decoration="underline" textLength="30" x="633" y="204">data:</text></a><line style="stroke:#181818;stroke-width:1.5;" x1="613" x2="623" y1="248.5977" y2="248.5977"/><rect fill="#F1F1F1" height="34.1328" style="stroke:#181818;stroke-width:1.5;" width="50" x="623" y="231.5313"/><a href="https://developer.mozilla.org/en-US/docs/Web/API/Blob" target="_top" title="https://developer.mozilla.org/en-US/docs/Web/API/Blob" xlink:actuate="onRequest" xlink:href="https://developer.mozilla.org/en-US/docs/Web/API/Blob" xlink:show="new" xlink:title="https://developer.mozilla.org/en-US/docs/Web/API/Blob" xlink:type="simple"><text fill="#0000FF" font-family="sans-serif" font-size="12" lengthAdjust="spacing" text-decoration="underline" textLength="30" x="633" y="253.1328">blob:</text></a><line style="stroke:#181818;stroke-width:1.5;" x1="613" x2="623" y1="297.7305" y2="297.7305"/><rect fill="#F1F1F1" height="34.1328" style="stroke:#181818;stroke-width:1.5;" width="100" x="623" y="280.6641"/><a href="https://developer.mozilla.org/en-US/docs/Web/API/Media_Capture_and_Streams_API" target="_top" title="https://developer.mozilla.org/en-US/docs/Web/API/Media_Capture_and_Streams_API" xlink:actuate="onRequest" xlink:href="https://developer.mozilla.org/en-US/docs/Web/API/Media_Capture_and_Streams_API" xlink:show="new" xlink:title="https://developer.mozilla.org/en-US/docs/Web/API/Media_Capture_and_Streams_API" xlink:type="simple"><text fill="#0000FF" font-family="sans-serif" font-size="12" lengthAdjust="spacing" text-decoration="underline" textLength="80" x="633" y="302.2656">mediastream:</text></a><line style="stroke:#181818;stroke-width:1.5;" x1="613" x2="623" y1="346.8633" y2="346.8633"/><rect fill="#F1F1F1" height="34.1328" style="stroke:#181818;stroke-width:1.5;" width="81" x="623" y="329.7969"/><a href="https://developer.mozilla.org/en-US/docs/Web/API/FileSystem" target="_top" title="https://developer.mozilla.org/en-US/docs/Web/API/FileSystem" xlink:actuate="onRequest" xlink:href="https://developer.mozilla.org/en-US/docs/Web/API/FileSystem" xlink:show="new" xlink:title="https://developer.mozilla.org/en-US/docs/Web/API/FileSystem" xlink:type="simple"><text fill="#0000FF" font-family="sans-serif" font-size="12" lengthAdjust="spacing" text-decoration="underline" textLength="61" x="633" y="351.3984">filesystem:</text></a><line style="stroke:#181818;stroke-width:1.5;" x1="613" x2="613" y1="118.2656" y2="346.8633"/><line style="stroke:#181818;stroke-width:1.5;" x1="33" x2="613" y1="64.1328" y2="64.1328"/><rect fill="#FFDDFF" height="34.1328" style="stroke:#181818;stroke-width:1.5;" width="56" x="295" y="10"/><a href="https://developer.mozilla.org/en-US/docs/Web/HTTP/Headers/Content-Security-Policy/Sources#sources" target="_top" title="https://developer.mozilla.org/en-US/docs/Web/HTTP/Headers/Content-Security-Policy/Sources#sources" xlink:actuate="onRequest" xlink:href="https://developer.mozilla.org/en-US/docs/Web/HTTP/Headers/Content-Security-Policy/Sources#sources" xlink:show="new" xlink:title="https://developer.mozilla.org/en-US/docs/Web/HTTP/Headers/Content-Security-Policy/Sources#sources" xlink:type="simple"><text fill="#0000FF" font-family="sans-serif" font-size="12" lengthAdjust="spacing" text-decoration="underline" textLength="36" x="305" y="31.6016">values</text></a><line style="stroke:#181818;stroke-width:1.5;" x1="323" x2="323" y1="44.1328" y2="64.1328"/><!--MD5=[02b2aaeac5cb8eb8a2d785f9ab22e234]
@startwbs CSP-Values
*[#FFDDFF] [[https://developer.mozilla.org/en-US/docs/Web/HTTP/Headers/Content-Security-Policy/Sources#sources values]]
**[#66FFFF] save
*** none
*** self
*** stric-dynamic
*** report-sample
**[#pink] unsave
*** [[https://developer.mozilla.org/en-US/docs/Web/HTTP/Headers/Content-Security-Policy/script-src#unsafe_inline_script unsave-inline]]
*** unsafe-eval
*** unsafe-hashes
*** unsafe-allow-redirects  <:test_tube:>
**[#66FF66] [[https://developer.mozilla.org/en-US/docs/Learn/Common_questions/What_is_a_URL Hosts]]
*** fully qualified\n(incl path)
*** wild cards
*** ../ for directories
*** nonce-*
*** sha*-*
** scheme
*** https:
*** [[https://developer.mozilla.org/en-US/docs/Web/HTTP/Basics_of_HTTP/Data_URLs data:]]
*** [[https://developer.mozilla.org/en-US/docs/Web/API/Blob blob:]]
*** [[https://developer.mozilla.org/en-US/docs/Web/API/Media_Capture_and_Streams_API mediastream:]]
*** [[https://developer.mozilla.org/en-US/docs/Web/API/FileSystem filesystem:]]
@endwbs

PlantUML version 1.2022.7(Tue Aug 23 01:01:30 SGT 2022)
(GPL source distribution)
Java Runtime: OpenJDK Runtime Environment
JVM: OpenJDK 64-Bit Server VM
Default Encoding: UTF-8
Language: en
Country: SG
--></g></svg>