<?xml version="1.0" encoding="UTF-8" standalone="no"?><svg xmlns="http://www.w3.org/2000/svg" xmlns:xlink="http://www.w3.org/1999/xlink" contentStyleType="text/css" height="527px" preserveAspectRatio="none" style="width:998px;height:527px;background:#FFFFFF;" version="1.1" viewBox="0 0 998 527" width="998px" zoomAndPan="magnify"><defs/><g><line style="stroke:#181818;stroke-width:1.5;" x1="125" x2="125" y1="64.1328" y2="84.1328"/><rect fill="#F1F1F1" height="34.1328" style="stroke:#181818;stroke-width:1.5;" width="48" x="101" y="84.1328"/><a href="https://developer.mozilla.org/en-US/docs/Glossary/Fetch_directive" target="_top" title="https://developer.mozilla.org/en-US/docs/Glossary/Fetch_directive" xlink:actuate="onRequest" xlink:href="https://developer.mozilla.org/en-US/docs/Glossary/Fetch_directive" xlink:show="new" xlink:title="https://developer.mozilla.org/en-US/docs/Glossary/Fetch_directive" xlink:type="simple"><text fill="#0000FF" font-family="sans-serif" font-size="12" lengthAdjust="spacing" text-decoration="underline" textLength="28" x="111" y="105.7344">fetch</text></a><line style="stroke:#181818;stroke-width:1.5;" x1="115" x2="125" y1="150.332" y2="150.332"/><rect fill="#FFC0CB" height="34.1328" style="stroke:#181818;stroke-width:1.5;" width="84" x="31" y="133.2656"/><a href="https://developer.mozilla.org/en-US/docs/Web/HTTP/Headers/Content-Security-Policy/default-src" target="_top" title="https://developer.mozilla.org/en-US/docs/Web/HTTP/Headers/Content-Security-Policy/default-src" xlink:actuate="onRequest" xlink:href="https://developer.mozilla.org/en-US/docs/Web/HTTP/Headers/Content-Security-Policy/default-src" xlink:show="new" xlink:title="https://developer.mozilla.org/en-US/docs/Web/HTTP/Headers/Content-Security-Policy/default-src" xlink:type="simple"><text fill="#0000FF" font-family="sans-serif" font-size="12" lengthAdjust="spacing" text-decoration="underline" textLength="64" x="41" y="154.8672">default-src</text></a><line style="stroke:#181818;stroke-width:1.5;" x1="115" x2="125" y1="199.4648" y2="199.4648"/><rect fill="#F1F1F1" height="34.1328" style="stroke:#181818;stroke-width:1.5;" width="78" x="37" y="182.3984"/><a href="https://developer.mozilla.org/en-US/docs/Web/HTTP/Headers/Content-Security-Policy/frame-src" target="_top" title="https://developer.mozilla.org/en-US/docs/Web/HTTP/Headers/Content-Security-Policy/frame-src" xlink:actuate="onRequest" xlink:href="https://developer.mozilla.org/en-US/docs/Web/HTTP/Headers/Content-Security-Policy/frame-src" xlink:show="new" xlink:title="https://developer.mozilla.org/en-US/docs/Web/HTTP/Headers/Content-Security-Policy/frame-src" xlink:type="simple"><text fill="#0000FF" font-family="sans-serif" font-size="12" lengthAdjust="spacing" text-decoration="underline" textLength="58" x="47" y="204">frame-src</text></a><line style="stroke:#181818;stroke-width:1.5;" x1="115" x2="125" y1="248.5977" y2="248.5977"/><rect fill="#F1F1F1" height="34.1328" style="stroke:#181818;stroke-width:1.5;" width="93" x="22" y="231.5313"/><a href="https://developer.mozilla.org/en-US/docs/Web/HTTP/Headers/Content-Security-Policy/manifest-src" target="_top" title="https://developer.mozilla.org/en-US/docs/Web/HTTP/Headers/Content-Security-Policy/manifest-src" xlink:actuate="onRequest" xlink:href="https://developer.mozilla.org/en-US/docs/Web/HTTP/Headers/Content-Security-Policy/manifest-src" xlink:show="new" xlink:title="https://developer.mozilla.org/en-US/docs/Web/HTTP/Headers/Content-Security-Policy/manifest-src" xlink:type="simple"><text fill="#0000FF" font-family="sans-serif" font-size="12" lengthAdjust="spacing" text-decoration="underline" textLength="73" x="32" y="253.1328">manifest-src</text></a><line style="stroke:#181818;stroke-width:1.5;" x1="115" x2="125" y1="297.7305" y2="297.7305"/><rect fill="#F1F1F1" height="34.1328" style="stroke:#181818;stroke-width:1.5;" width="80" x="35" y="280.6641"/><a href="https://developer.mozilla.org/en-US/docs/Web/HTTP/Headers/Content-Security-Policy/object-src" target="_top" title="https://developer.mozilla.org/en-US/docs/Web/HTTP/Headers/Content-Security-Policy/object-src" xlink:actuate="onRequest" xlink:href="https://developer.mozilla.org/en-US/docs/Web/HTTP/Headers/Content-Security-Policy/object-src" xlink:show="new" xlink:title="https://developer.mozilla.org/en-US/docs/Web/HTTP/Headers/Content-Security-Policy/object-src" xlink:type="simple"><text fill="#0000FF" font-family="sans-serif" font-size="12" lengthAdjust="spacing" text-decoration="underline" textLength="60" x="45" y="302.2656">object-src</text></a><line style="stroke:#181818;stroke-width:1.5;" x1="115" x2="125" y1="346.8633" y2="346.8633"/><rect fill="#F1F1F1" height="34.1328" style="stroke:#181818;stroke-width:1.5;" width="76" x="39" y="329.7969"/><a href="https://developer.mozilla.org/en-US/docs/Web/HTTP/Headers/Content-Security-Policy/script-src" target="_top" title="https://developer.mozilla.org/en-US/docs/Web/HTTP/Headers/Content-Security-Policy/script-src" xlink:actuate="onRequest" xlink:href="https://developer.mozilla.org/en-US/docs/Web/HTTP/Headers/Content-Security-Policy/script-src" xlink:show="new" xlink:title="https://developer.mozilla.org/en-US/docs/Web/HTTP/Headers/Content-Security-Policy/script-src" xlink:type="simple"><text fill="#0000FF" font-family="sans-serif" font-size="12" lengthAdjust="spacing" text-decoration="underline" textLength="56" x="49" y="351.3984">script-src</text></a><line style="stroke:#181818;stroke-width:1.5;" x1="115" x2="125" y1="395.9961" y2="395.9961"/><rect fill="#F1F1F1" height="34.1328" style="stroke:#181818;stroke-width:1.5;" width="103" x="12" y="378.9297"/><a href="script-src-attr" target="_top" title="script-src-attr" xlink:actuate="onRequest" xlink:href="script-src-attr" xlink:show="new" xlink:title="script-src-attr" xlink:type="simple"><text fill="#0000FF" font-family="sans-serif" font-size="12" lengthAdjust="spacing" text-decoration="underline" textLength="83" x="22" y="400.5313">script-src-attr</text></a><line style="stroke:#181818;stroke-width:1.5;" x1="115" x2="125" y1="445.1289" y2="445.1289"/><rect fill="#F1F1F1" height="34.1328" style="stroke:#181818;stroke-width:1.5;" width="105" x="10" y="428.0625"/><a href="https://developer.mozilla.org/en-US/docs/Web/HTTP/Headers/Content-Security-Policy/style-src-elem" target="_top" title="https://developer.mozilla.org/en-US/docs/Web/HTTP/Headers/Content-Security-Policy/style-src-elem" xlink:actuate="onRequest" xlink:href="https://developer.mozilla.org/en-US/docs/Web/HTTP/Headers/Content-Security-Policy/style-src-elem" xlink:show="new" xlink:title="https://developer.mozilla.org/en-US/docs/Web/HTTP/Headers/Content-Security-Policy/style-src-elem" xlink:type="simple"><text fill="#0000FF" font-family="sans-serif" font-size="12" lengthAdjust="spacing" text-decoration="underline" textLength="85" x="20" y="449.6641">style-src-elem</text></a><line style="stroke:#181818;stroke-width:1.5;" x1="115" x2="125" y1="494.2617" y2="494.2617"/><rect fill="#F1F1F1" height="34.1328" style="stroke:#181818;stroke-width:1.5;" width="84" x="31" y="477.1953"/><a href="https://developer.mozilla.org/en-US/docs/Web/HTTP/Headers/Content-Security-Policy/worker-src" target="_top" title="https://developer.mozilla.org/en-US/docs/Web/HTTP/Headers/Content-Security-Policy/worker-src" xlink:actuate="onRequest" xlink:href="https://developer.mozilla.org/en-US/docs/Web/HTTP/Headers/Content-Security-Policy/worker-src" xlink:show="new" xlink:title="https://developer.mozilla.org/en-US/docs/Web/HTTP/Headers/Content-Security-Policy/worker-src" xlink:type="simple"><text fill="#0000FF" font-family="sans-serif" font-size="12" lengthAdjust="spacing" text-decoration="underline" textLength="64" x="41" y="498.7969">worker-src</text></a><line style="stroke:#181818;stroke-width:1.5;" x1="125" x2="135" y1="150.332" y2="150.332"/><rect fill="#F1F1F1" height="34.1328" style="stroke:#181818;stroke-width:1.5;" width="88" x="135" y="133.2656"/><a href="https://developer.mozilla.org/en-US/docs/Web/HTTP/Headers/Content-Security-Policy/connect-src" target="_top" title="https://developer.mozilla.org/en-US/docs/Web/HTTP/Headers/Content-Security-Policy/connect-src" xlink:actuate="onRequest" xlink:href="https://developer.mozilla.org/en-US/docs/Web/HTTP/Headers/Content-Security-Policy/connect-src" xlink:show="new" xlink:title="https://developer.mozilla.org/en-US/docs/Web/HTTP/Headers/Content-Security-Policy/connect-src" xlink:type="simple"><text fill="#0000FF" font-family="sans-serif" font-size="12" lengthAdjust="spacing" text-decoration="underline" textLength="68" x="145" y="154.8672">connect-src</text></a><line style="stroke:#181818;stroke-width:1.5;" x1="125" x2="135" y1="199.4648" y2="199.4648"/><rect fill="#F1F1F1" height="34.1328" style="stroke:#181818;stroke-width:1.5;" width="66" x="135" y="182.3984"/><a href="https://developer.mozilla.org/en-US/docs/Web/HTTP/Headers/Content-Security-Policy/font-src" target="_top" title="https://developer.mozilla.org/en-US/docs/Web/HTTP/Headers/Content-Security-Policy/font-src" xlink:actuate="onRequest" xlink:href="https://developer.mozilla.org/en-US/docs/Web/HTTP/Headers/Content-Security-Policy/font-src" xlink:show="new" xlink:title="https://developer.mozilla.org/en-US/docs/Web/HTTP/Headers/Content-Security-Policy/font-src" xlink:type="simple"><text fill="#0000FF" font-family="sans-serif" font-size="12" lengthAdjust="spacing" text-decoration="underline" textLength="46" x="145" y="204">font-src</text></a><line style="stroke:#181818;stroke-width:1.5;" x1="125" x2="135" y1="248.5977" y2="248.5977"/><rect fill="#F1F1F1" height="34.1328" style="stroke:#181818;stroke-width:1.5;" width="65" x="135" y="231.5313"/><a href="https://developer.mozilla.org/en-US/docs/Web/HTTP/Headers/Content-Security-Policy/img-src" target="_top" title="https://developer.mozilla.org/en-US/docs/Web/HTTP/Headers/Content-Security-Policy/img-src" xlink:actuate="onRequest" xlink:href="https://developer.mozilla.org/en-US/docs/Web/HTTP/Headers/Content-Security-Policy/img-src" xlink:show="new" xlink:title="https://developer.mozilla.org/en-US/docs/Web/HTTP/Headers/Content-Security-Policy/img-src" xlink:type="simple"><text fill="#0000FF" font-family="sans-serif" font-size="12" lengthAdjust="spacing" text-decoration="underline" textLength="45" x="145" y="253.1328">img-src</text></a><line style="stroke:#181818;stroke-width:1.5;" x1="125" x2="135" y1="297.7305" y2="297.7305"/><rect fill="#F1F1F1" height="34.1328" style="stroke:#181818;stroke-width:1.5;" width="80" x="135" y="280.6641"/><a href="https://developer.mozilla.org/en-US/docs/Web/HTTP/Headers/Content-Security-Policy/media-src" target="_top" title="https://developer.mozilla.org/en-US/docs/Web/HTTP/Headers/Content-Security-Policy/media-src" xlink:actuate="onRequest" xlink:href="https://developer.mozilla.org/en-US/docs/Web/HTTP/Headers/Content-Security-Policy/media-src" xlink:show="new" xlink:title="https://developer.mozilla.org/en-US/docs/Web/HTTP/Headers/Content-Security-Policy/media-src" xlink:type="simple"><text fill="#0000FF" font-family="sans-serif" font-size="12" lengthAdjust="spacing" text-decoration="underline" textLength="60" x="145" y="302.2656">media-src</text></a><line style="stroke:#181818;stroke-width:1.5;" x1="125" x2="135" y1="349.5469" y2="349.5469"/><rect fill="#F1F1F1" height="39.5" style="stroke:#181818;stroke-width:1.5;" width="114" x="135" y="329.7969"/><a href="https://developer.mozilla.org/en-US/docs/Web/HTTP/Headers/Content-Security-Policy/prefetch-src" target="_top" title="https://developer.mozilla.org/en-US/docs/Web/HTTP/Headers/Content-Security-Policy/prefetch-src" xlink:actuate="onRequest" xlink:href="https://developer.mozilla.org/en-US/docs/Web/HTTP/Headers/Content-Security-Policy/prefetch-src" xlink:show="new" xlink:title="https://developer.mozilla.org/en-US/docs/Web/HTTP/Headers/Content-Security-Policy/prefetch-src" xlink:type="simple"><text fill="#0000FF" font-family="sans-serif" font-size="12" lengthAdjust="spacing" text-decoration="underline" textLength="72" x="145" y="356.7656">prefetch-src</text></a><text fill="#000000" font-family="sans-serif" font-size="12" lengthAdjust="spacing" textLength="4" x="217" y="356.7656"> </text><path d="M228.2815,347.0039 L233.735,341.5494 L237.2155,345.0304 L231.7615,350.4844 " fill="#CCD6DD" style="stroke:;stroke-width:0.0;stroke-dasharray:;"/><path d="M225.0515,356.9964 C222.25,356.7969 221.75,354.8279 221.8175,353.7629 C221.9785,351.2279 229.618,345.4874 229.618,345.4874 L235.8765,346.4524 C235.877,346.4524 227.182,357.1484 225.0515,356.9964 " fill="#68E090" style="stroke:;stroke-width:0.0;stroke-dasharray:;"/><path d="M237.163,341.6509 C235.7025,340.1904 234.052,339.4724 233.477,340.0479 C233.4705,340.0544 233.466,340.0634 233.46,340.0699 C233.457,340.0729 233.4525,340.0739 233.4495,340.0769 L222.1475,351.3789 C221.4415,352.0849 221.0525,353.0239 221.0525,354.0229 C221.0525,355.0214 221.4415,355.9604 222.1475,356.6664 C222.854,357.3729 223.793,357.7614 224.7915,357.7614 C225.7905,357.7614 226.729,357.3729 227.435,356.6669 L238.737,345.3649 C238.7405,345.3614 238.7415,345.3569 238.7445,345.3534 C238.751,345.3474 238.7595,345.3434 238.766,345.3369 C239.3415,344.7619 238.6235,343.1114 237.163,341.6509 M226.375,355.6064 C225.952,356.0294 225.39,356.2619 224.792,356.2619 C224.194,356.2619 223.6315,356.0289 223.2085,355.6059 C222.7855,355.1829 222.5525,354.6209 222.5525,354.0224 C222.5525,353.4244 222.7855,352.8624 223.208,352.4394 L233.706,341.9419 C234.017,342.5139 234.486,343.1389 235.0805,343.7339 C235.675,344.3284 236.3005,344.7974 236.8725,345.1084 L226.375,355.6064 " fill="#8899A6" style="stroke:;stroke-width:0.0;stroke-dasharray:;"/><path d="M235.598,346.3689 C235.569,346.5584 234.2845,346.7444 232.7525,346.5404 C231.221,346.3364 230.0115,345.9289 230.051,345.6304 C230.091,345.3319 231.3645,345.2549 232.8965,345.4589 C234.4285,345.6629 235.644,346.0709 235.598,346.3689 M226.42,351.4204 C226.265,351.5754 226.0135,351.5754 225.8585,351.4204 C225.7035,351.2654 225.7035,351.0139 225.8585,350.8589 C226.0135,350.7039 226.265,350.7039 226.42,350.8589 C226.575,351.0139 226.575,351.2654 226.42,351.4204 M228.0785,352.7279 C227.825,352.9814 227.4145,352.9809 227.161,352.7279 C226.908,352.4749 226.908,352.0639 227.161,351.8109 C227.4145,351.5574 227.825,351.5579 228.078,351.8109 C228.3315,352.0639 228.332,352.4744 228.0785,352.7279 M228.917,350.0659 C228.679,350.3039 228.292,350.3039 228.054,350.0659 C227.816,349.8279 227.816,349.4414 228.054,349.2029 C228.292,348.9649 228.6785,348.9644 228.9165,349.2029 C229.1555,349.4414 229.1555,349.8279 228.917,350.0659 M225.483,354.4949 C225.1925,354.7854 224.721,354.7854 224.4305,354.4949 C224.1395,354.2039 224.14,353.7329 224.4305,353.4424 C224.721,353.1519 225.192,353.1519 225.483,353.4424 C225.7735,353.7329 225.774,354.2039 225.483,354.4949 M231.181,349.9159 C230.9745,350.1224 230.6395,350.1224 230.433,349.9159 C230.2265,349.7094 230.227,349.3744 230.4335,349.1679 C230.6405,348.9609 230.975,348.9609 231.1815,349.1674 C231.388,349.3744 231.388,349.7089 231.181,349.9159 M230.5775,347.7719 C230.4425,347.9069 230.2235,347.9069 230.088,347.7719 C229.953,347.6369 229.953,347.4179 230.088,347.2824 C230.223,347.1474 230.442,347.1469 230.5775,347.2824 C230.7125,347.4179 230.7125,347.6369 230.5775,347.7719 " fill="#17BF63" style="stroke:;stroke-width:0.0;stroke-dasharray:;"/><ellipse cx="234.5619" cy="353.304" fill="#CCD6DD" rx="0.4186" ry="1.7136" style="stroke:#CCD6DD;stroke-width:1.5;"/><line style="stroke:#181818;stroke-width:1.5;" x1="125" x2="135" y1="401.3633" y2="401.3633"/><rect fill="#F1F1F1" height="34.1328" style="stroke:#181818;stroke-width:1.5;" width="111" x="135" y="384.2969"/><a href="script-src-elem" target="_top" title="script-src-elem" xlink:actuate="onRequest" xlink:href="script-src-elem" xlink:show="new" xlink:title="script-src-elem" xlink:type="simple"><text fill="#0000FF" font-family="sans-serif" font-size="12" lengthAdjust="spacing" text-decoration="underline" textLength="91" x="145" y="405.8984">script-src-elem</text></a><line style="stroke:#181818;stroke-width:1.5;" x1="125" x2="135" y1="450.4961" y2="450.4961"/><rect fill="#F1F1F1" height="34.1328" style="stroke:#181818;stroke-width:1.5;" width="70" x="135" y="433.4297"/><a href="https://developer.mozilla.org/en-US/docs/Web/HTTP/Headers/Content-Security-Policy/style-src" target="_top" title="https://developer.mozilla.org/en-US/docs/Web/HTTP/Headers/Content-Security-Policy/style-src" xlink:actuate="onRequest" xlink:href="https://developer.mozilla.org/en-US/docs/Web/HTTP/Headers/Content-Security-Policy/style-src" xlink:show="new" xlink:title="https://developer.mozilla.org/en-US/docs/Web/HTTP/Headers/Content-Security-Policy/style-src" xlink:type="simple"><text fill="#0000FF" font-family="sans-serif" font-size="12" lengthAdjust="spacing" text-decoration="underline" textLength="50" x="145" y="455.0313">style-src</text></a><line style="stroke:#181818;stroke-width:1.5;" x1="125" x2="135" y1="499.6289" y2="499.6289"/><rect fill="#F1F1F1" height="34.1328" style="stroke:#181818;stroke-width:1.5;" width="97" x="135" y="482.5625"/><a href="https://developer.mozilla.org/en-US/docs/Web/HTTP/Headers/Content-Security-Policy/style-src-attr" target="_top" title="https://developer.mozilla.org/en-US/docs/Web/HTTP/Headers/Content-Security-Policy/style-src-attr" xlink:actuate="onRequest" xlink:href="https://developer.mozilla.org/en-US/docs/Web/HTTP/Headers/Content-Security-Policy/style-src-attr" xlink:show="new" xlink:title="https://developer.mozilla.org/en-US/docs/Web/HTTP/Headers/Content-Security-Policy/style-src-attr" xlink:type="simple"><text fill="#0000FF" font-family="sans-serif" font-size="12" lengthAdjust="spacing" text-decoration="underline" textLength="77" x="145" y="504.1641">style-src-attr</text></a><line style="stroke:#181818;stroke-width:1.5;" x1="125" x2="125" y1="118.2656" y2="499.6289"/><line style="stroke:#181818;stroke-width:1.5;" x1="307.5" x2="307.5" y1="64.1328" y2="84.1328"/><rect fill="#F1F1F1" height="34.1328" style="stroke:#181818;stroke-width:1.5;" width="77" x="269" y="84.1328"/><text fill="#000000" font-family="sans-serif" font-size="12" lengthAdjust="spacing" textLength="57" x="279" y="105.7344">document</text><line style="stroke:#181818;stroke-width:1.5;" x1="307.5" x2="317.5" y1="150.332" y2="150.332"/><rect fill="#F1F1F1" height="34.1328" style="stroke:#181818;stroke-width:1.5;" width="70" x="317.5" y="133.2656"/><a href="https://developer.mozilla.org/en-US/docs/Web/HTTP/Headers/Content-Security-Policy/base-uri" target="_top" title="https://developer.mozilla.org/en-US/docs/Web/HTTP/Headers/Content-Security-Policy/base-uri" xlink:actuate="onRequest" xlink:href="https://developer.mozilla.org/en-US/docs/Web/HTTP/Headers/Content-Security-Policy/base-uri" xlink:show="new" xlink:title="https://developer.mozilla.org/en-US/docs/Web/HTTP/Headers/Content-Security-Policy/base-uri" xlink:type="simple"><text fill="#0000FF" font-family="sans-serif" font-size="12" lengthAdjust="spacing" text-decoration="underline" textLength="50" x="327.5" y="154.8672">base-uri</text></a><line style="stroke:#181818;stroke-width:1.5;" x1="307.5" x2="317.5" y1="199.4648" y2="199.4648"/><rect fill="#F1F1F1" height="34.1328" style="stroke:#181818;stroke-width:1.5;" width="70" x="317.5" y="182.3984"/><a href="https://developer.mozilla.org/en-US/docs/Web/HTTP/Headers/Content-Security-Policy/sandbox" target="_top" title="https://developer.mozilla.org/en-US/docs/Web/HTTP/Headers/Content-Security-Policy/sandbox" xlink:actuate="onRequest" xlink:href="https://developer.mozilla.org/en-US/docs/Web/HTTP/Headers/Content-Security-Policy/sandbox" xlink:show="new" xlink:title="https://developer.mozilla.org/en-US/docs/Web/HTTP/Headers/Content-Security-Policy/sandbox" xlink:type="simple"><text fill="#0000FF" font-family="sans-serif" font-size="12" lengthAdjust="spacing" text-decoration="underline" textLength="50" x="327.5" y="204">sandbox</text></a><line style="stroke:#181818;stroke-width:1.5;" x1="307.5" x2="307.5" y1="118.2656" y2="199.4648"/><line style="stroke:#181818;stroke-width:1.5;" x1="446.5" x2="446.5" y1="64.1328" y2="84.1328"/><rect fill="#F1F1F1" height="34.1328" style="stroke:#181818;stroke-width:1.5;" width="78" x="407.5" y="84.1328"/><text fill="#000000" font-family="sans-serif" font-size="12" lengthAdjust="spacing" textLength="58" x="417.5" y="105.7344">navigation</text><line style="stroke:#181818;stroke-width:1.5;" x1="446.5" x2="456.5" y1="150.332" y2="150.332"/><rect fill="#F1F1F1" height="34.1328" style="stroke:#181818;stroke-width:1.5;" width="88" x="456.5" y="133.2656"/><a href="https://developer.mozilla.org/en-US/docs/Web/HTTP/Headers/Content-Security-Policy/form-action" target="_top" title="https://developer.mozilla.org/en-US/docs/Web/HTTP/Headers/Content-Security-Policy/form-action" xlink:actuate="onRequest" xlink:href="https://developer.mozilla.org/en-US/docs/Web/HTTP/Headers/Content-Security-Policy/form-action" xlink:show="new" xlink:title="https://developer.mozilla.org/en-US/docs/Web/HTTP/Headers/Content-Security-Policy/form-action" xlink:type="simple"><text fill="#0000FF" font-family="sans-serif" font-size="12" lengthAdjust="spacing" text-decoration="underline" textLength="68" x="466.5" y="154.8672">form-action</text></a><line style="stroke:#181818;stroke-width:1.5;" x1="446.5" x2="456.5" y1="199.4648" y2="199.4648"/><rect fill="#F1F1F1" height="34.1328" style="stroke:#181818;stroke-width:1.5;" width="116" x="456.5" y="182.3984"/><a href="https://developer.mozilla.org/en-US/docs/Web/HTTP/Headers/Content-Security-Policy/frame-ancestors" target="_top" title="https://developer.mozilla.org/en-US/docs/Web/HTTP/Headers/Content-Security-Policy/frame-ancestors" xlink:actuate="onRequest" xlink:href="https://developer.mozilla.org/en-US/docs/Web/HTTP/Headers/Content-Security-Policy/frame-ancestors" xlink:show="new" xlink:title="https://developer.mozilla.org/en-US/docs/Web/HTTP/Headers/Content-Security-Policy/frame-ancestors" xlink:type="simple"><text fill="#0000FF" font-family="sans-serif" font-size="12" lengthAdjust="spacing" text-decoration="underline" textLength="96" x="466.5" y="204">frame-ancestors</text></a><line style="stroke:#181818;stroke-width:1.5;" x1="446.5" x2="456.5" y1="251.2813" y2="251.2813"/><rect fill="#F1F1F1" height="39.5" style="stroke:#181818;stroke-width:1.5;" width="108" x="456.5" y="231.5313"/><a href="navigate-to" target="_top" title="navigate-to" xlink:actuate="onRequest" xlink:href="navigate-to" xlink:show="new" xlink:title="navigate-to" xlink:type="simple"><text fill="#0000FF" font-family="sans-serif" font-size="12" lengthAdjust="spacing" text-decoration="underline" textLength="66" x="466.5" y="258.5">navigate-to</text></a><text fill="#000000" font-family="sans-serif" font-size="12" lengthAdjust="spacing" textLength="4" x="532.5" y="258.5"> </text><path d="M543.7815,248.7383 L549.235,243.2838 L552.7155,246.7648 L547.2615,252.2188 " fill="#CCD6DD" style="stroke:;stroke-width:0.0;stroke-dasharray:;"/><path d="M540.5515,258.7308 C537.75,258.5313 537.25,256.5623 537.3175,255.4973 C537.4785,252.9623 545.118,247.2218 545.118,247.2218 L551.3765,248.1868 C551.377,248.1868 542.682,258.8828 540.5515,258.7308 " fill="#68E090" style="stroke:;stroke-width:0.0;stroke-dasharray:;"/><path d="M552.663,243.3853 C551.2025,241.9248 549.552,241.2068 548.977,241.7823 C548.9705,241.7888 548.966,241.7978 548.96,241.8043 C548.957,241.8073 548.9525,241.8083 548.9495,241.8113 L537.6475,253.1133 C536.9415,253.8193 536.5525,254.7583 536.5525,255.7573 C536.5525,256.7558 536.9415,257.6948 537.6475,258.4008 C538.354,259.1073 539.293,259.4958 540.2915,259.4958 C541.2905,259.4958 542.229,259.1073 542.935,258.4013 L554.237,247.0993 C554.2405,247.0958 554.2415,247.0913 554.2445,247.0878 C554.251,247.0818 554.2595,247.0778 554.266,247.0713 C554.8415,246.4963 554.1235,244.8458 552.663,243.3853 M541.875,257.3408 C541.452,257.7638 540.89,257.9963 540.292,257.9963 C539.694,257.9963 539.1315,257.7632 538.7085,257.3403 C538.2855,256.9173 538.0525,256.3553 538.0525,255.7568 C538.0525,255.1588 538.2855,254.5968 538.708,254.1738 L549.206,243.6763 C549.517,244.2483 549.986,244.8733 550.5805,245.4683 C551.175,246.0628 551.8005,246.5318 552.3725,246.8428 L541.875,257.3408 " fill="#8899A6" style="stroke:;stroke-width:0.0;stroke-dasharray:;"/><path d="M551.098,248.1033 C551.069,248.2928 549.7845,248.4788 548.2525,248.2748 C546.721,248.0708 545.5115,247.6633 545.551,247.3648 C545.591,247.0663 546.8645,246.9893 548.3965,247.1933 C549.9285,247.3972 551.144,247.8053 551.098,248.1033 M541.92,253.1548 C541.765,253.3098 541.5135,253.3098 541.3585,253.1548 C541.2035,252.9998 541.2035,252.7483 541.3585,252.5933 C541.5135,252.4383 541.765,252.4383 541.92,252.5933 C542.075,252.7483 542.075,252.9998 541.92,253.1548 M543.5785,254.4623 C543.325,254.7158 542.9145,254.7153 542.661,254.4623 C542.408,254.2093 542.408,253.7983 542.661,253.5453 C542.9145,253.2918 543.325,253.2923 543.578,253.5453 C543.8315,253.7983 543.832,254.2088 543.5785,254.4623 M544.417,251.8003 C544.179,252.0383 543.792,252.0383 543.554,251.8003 C543.316,251.5623 543.316,251.1758 543.554,250.9373 C543.792,250.6993 544.1785,250.6988 544.4165,250.9373 C544.6555,251.1758 544.6555,251.5623 544.417,251.8003 M540.983,256.2293 C540.6925,256.5198 540.221,256.5198 539.9305,256.2293 C539.6395,255.9383 539.64,255.4673 539.9305,255.1768 C540.221,254.8863 540.692,254.8863 540.983,255.1768 C541.2735,255.4673 541.274,255.9383 540.983,256.2293 M546.681,251.6503 C546.4745,251.8568 546.1395,251.8568 545.933,251.6503 C545.7265,251.4438 545.727,251.1088 545.9335,250.9023 C546.1405,250.6953 546.475,250.6953 546.6815,250.9018 C546.888,251.1088 546.888,251.4433 546.681,251.6503 M546.0775,249.5063 C545.9425,249.6413 545.7235,249.6413 545.588,249.5063 C545.453,249.3713 545.453,249.1523 545.588,249.0168 C545.723,248.8818 545.942,248.8813 546.0775,249.0168 C546.2125,249.1523 546.2125,249.3713 546.0775,249.5063 " fill="#17BF63" style="stroke:;stroke-width:0.0;stroke-dasharray:;"/><ellipse cx="550.0619" cy="255.0384" fill="#CCD6DD" rx="0.4186" ry="1.7136" style="stroke:#CCD6DD;stroke-width:1.5;"/><line style="stroke:#181818;stroke-width:1.5;" x1="446.5" x2="446.5" y1="118.2656" y2="251.2813"/><line style="stroke:#181818;stroke-width:1.5;" x1="629" x2="629" y1="64.1328" y2="84.1328"/><rect fill="#F1F1F1" height="34.1328" style="stroke:#181818;stroke-width:1.5;" width="73" x="592.5" y="84.1328"/><text fill="#000000" font-family="sans-serif" font-size="12" lengthAdjust="spacing" textLength="53" x="602.5" y="105.7344">reporting</text><line style="stroke:#181818;stroke-width:1.5;" x1="629" x2="639" y1="153.0156" y2="153.0156"/><rect fill="#F1F1F1" height="39.5" style="stroke:#181818;stroke-width:1.5;" width="96" x="639" y="133.2656"/><a href="https://developer.mozilla.org/en-US/docs/Web/HTTP/Headers/Content-Security-Policy/report-to" target="_top" title="https://developer.mozilla.org/en-US/docs/Web/HTTP/Headers/Content-Security-Policy/report-to" xlink:actuate="onRequest" xlink:href="https://developer.mozilla.org/en-US/docs/Web/HTTP/Headers/Content-Security-Policy/report-to" xlink:show="new" xlink:title="https://developer.mozilla.org/en-US/docs/Web/HTTP/Headers/Content-Security-Policy/report-to" xlink:type="simple"><text fill="#0000FF" font-family="sans-serif" font-size="12" lengthAdjust="spacing" text-decoration="underline" textLength="54" x="649" y="160.2344">report-to</text></a><text fill="#000000" font-family="sans-serif" font-size="12" lengthAdjust="spacing" textLength="4" x="703" y="160.2344"> </text><path d="M708.3265,160.7656 C707.4055,160.7656 706.9995,160.0966 707.4235,159.2791 L715.228,144.2516 C715.6525,143.4341 716.347,143.4341 716.7715,144.2516 L724.576,159.2796 C725.001,160.0966 724.5945,160.7656 723.6735,160.7656 L708.3265,160.7656 " fill="#FFCC4D" style="stroke:;stroke-width:0.0;stroke-dasharray:;"/><path d="M714.7915,157.7421 C714.7915,157.0756 715.334,156.5331 716.001,156.5331 C716.6675,156.5331 717.21,157.0756 717.21,157.7421 C717.21,158.4091 716.667,158.9516 716.001,158.9516 C715.334,158.9516 714.7915,158.4091 714.7915,157.7421 M714.8845,148.5956 C714.8845,147.9446 715.365,147.5416 716.0005,147.5416 C716.621,147.5416 717.117,147.9601 717.117,148.5956 L717.117,154.5646 C717.117,155.2001 716.621,155.6186 716.0005,155.6186 C715.365,155.6186 714.8845,155.2151 714.8845,154.5646 L714.8845,148.5956 " fill="#231F20" style="stroke:;stroke-width:0.0;stroke-dasharray:;"/><line style="stroke:#181818;stroke-width:1.5;" x1="629" x2="639" y1="207.5156" y2="207.5156"/><rect fill="#F1F1F1" height="39.5" style="stroke:#181818;stroke-width:1.5;" width="100" x="639" y="187.7656"/><a href="https://developer.mozilla.org/en-US/docs/Web/HTTP/Headers/Content-Security-Policy/report-uri" target="_top" title="https://developer.mozilla.org/en-US/docs/Web/HTTP/Headers/Content-Security-Policy/report-uri" xlink:actuate="onRequest" xlink:href="https://developer.mozilla.org/en-US/docs/Web/HTTP/Headers/Content-Security-Policy/report-uri" xlink:show="new" xlink:title="https://developer.mozilla.org/en-US/docs/Web/HTTP/Headers/Content-Security-Policy/report-uri" xlink:type="simple"><text fill="#0000FF" font-family="sans-serif" font-size="12" lengthAdjust="spacing" text-decoration="underline" textLength="58" x="649" y="214.7344">report-uri</text></a><text fill="#000000" font-family="sans-serif" font-size="12" lengthAdjust="spacing" textLength="4" x="707" y="214.7344"> </text><path d="M726.0005,212.2656 C725.8265,212.2656 725.658,212.1751 725.566,212.0136 L723.4485,208.5256 C723.3115,208.2861 723.365,207.9861 723.6045,207.8486 L726.0835,206.3486 C726.1615,206.3041 726.3315,206.2656 726.4155,206.2656 C726.5895,206.2656 726.7515,206.3646 726.8435,206.5261 L728.397,209.0871 L728.479,210.2031 C728.616,210.4426 728,210.7951 727.76,210.9321 L726.2475,212.1996 C726.17,212.2446 726.0845,212.2656 726.0005,212.2656 " fill="#3E721D" style="stroke:;stroke-width:0.0;stroke-dasharray:;"/><path d="M722.5,213.7656 C722.2235,213.7656 722,213.5421 722,213.2656 L722,210.2656 C722,209.9891 722.2235,209.7656 722.5,209.7656 L727.5,209.7656 C728.425,209.7656 728.275,208.8751 728.275,208.8751 C728.275,208.8751 728.4385,209.1561 728.4625,209.2006 C728.626,209.5076 728.7345,209.9766 728.4795,210.4531 L726.935,213.5141 C726.8625,213.6586 726.6895,213.7656 726.5,213.7656 L722.5,213.7656 " fill="#77B255" style="stroke:;stroke-width:0.0;stroke-dasharray:;"/><path d="M722,215.2656 C721.87,215.2656 721.742,215.2146 721.6465,215.1191 L718.6465,212.1191 C718.451,211.9236 718.451,211.6076 718.6465,211.4121 L721.6465,208.4121 C721.742,208.3166 721.87,208.2656 722,208.2656 C722.0645,208.2656 722.1295,208.2776 722.1915,208.3036 C722.3785,208.3806 722.5,208.5636 722.5,208.7656 L722.5,214.7656 C722.5,214.9676 722.3785,215.1506 722.1915,215.2276 C722.1295,215.2536 722.0645,215.2656 722,215.2656 " fill="#77B255" style="stroke:;stroke-width:0.0;stroke-dasharray:;"/><path d="M721.2965,199.4151 C721.3755,199.5701 721.3715,199.7611 721.2695,199.9171 L719.123,203.3871 C718.9715,203.6186 718.68,203.7066 718.449,203.5551 L715.987,202.0281 C715.912,201.9786 715.8,201.8446 715.762,201.7701 C715.683,201.6151 715.6975,201.4261 715.7995,201.2701 L717.3755,198.7231 L718.3325,198.1436 C718.484,197.9121 719.0775,198.3011 719.309,198.4531 L721.1245,199.2251 C721.2005,199.2746 721.2585,199.3411 721.2965,199.4151 " fill="#3E721D" style="stroke:;stroke-width:0.0;stroke-dasharray:;"/><path d="M724.222,201.8531 C724.3475,202.0996 724.2505,202.4001 724.0035,202.5261 L721.33,203.8881 C721.084,204.0131 720.783,203.9156 720.658,203.6696 L718.387,199.2146 C717.9675,198.3901 717.242,198.9281 717.242,198.9281 C717.242,198.9281 717.418,198.6551 717.447,198.6131 C717.6465,198.3281 718.0145,198.0191 718.555,198.0296 L721.9845,198.0156 C722.1465,198.0156 722.32,198.1201 722.4065,198.2891 L724.222,201.8531 " fill="#77B255" style="stroke:;stroke-width:0.0;stroke-dasharray:;"/><path d="M725.7855,201.6181 C725.8445,201.7336 725.857,201.8706 725.8155,201.9991 L724.505,206.0346 C724.42,206.2971 724.138,206.4406 723.875,206.3556 L719.84,205.0441 C719.711,205.0026 719.608,204.9116 719.5485,204.7961 C719.519,204.7391 719.5005,204.6751 719.495,204.6081 C719.479,204.4061 719.587,204.2151 719.767,204.1236 L725.113,201.3996 C725.293,201.3076 725.5105,201.3326 725.6645,201.4646 C725.716,201.5076 725.7565,201.5606 725.7855,201.6181 " fill="#77B255" style="stroke:;stroke-width:0.0;stroke-dasharray:;"/><path d="M712.6875,210.0366 C712.778,209.8881 712.9425,209.7916 713.1285,209.7971 L717.209,209.7996 C717.4855,209.8081 717.7135,210.0096 717.7065,210.2856 L717.6995,213.1831 C717.697,213.2731 717.6415,213.4391 717.598,213.5101 C717.5075,213.6586 717.3385,213.7461 717.1525,213.7406 L714.1575,213.7366 L713.161,213.2271 C712.8855,213.2186 712.9045,212.5096 712.9115,212.2341 L712.615,210.2821 C712.617,210.1926 712.644,210.1081 712.6875,210.0366 " fill="#3E721D" style="stroke:;stroke-width:0.0;stroke-dasharray:;"/><path d="M713.2255,206.2666 C713.369,206.0306 713.6765,205.9556 713.9125,206.0991 L716.4755,207.6586 C716.712,207.8021 716.7865,208.1091 716.643,208.3456 L714.0445,212.6171 C713.5645,213.4071 714.403,213.7421 714.403,213.7421 C714.403,213.7421 714.078,213.7351 714.0275,213.7321 C713.6795,213.7131 713.223,213.5616 712.948,213.0966 L711.135,210.1866 C711.0495,210.0491 711.048,209.8456 711.1465,209.6836 L713.2255,206.2666 " fill="#77B255" style="stroke:;stroke-width:0.0;stroke-dasharray:;"/><path d="M712.2035,205.0601 C712.2715,204.9481 712.381,204.8661 712.5125,204.8331 L716.635,203.8301 C716.9035,203.7641 717.1735,203.9286 717.239,204.1971 L718.2425,208.3191 C718.2745,208.4511 718.251,208.5861 718.1835,208.6976 C718.1505,208.7521 718.106,208.8016 718.0515,208.8416 C717.8885,208.9606 717.6695,208.9696 717.4965,208.8646 L712.3715,205.7471 C712.1985,205.6416 712.106,205.4426 712.137,205.2431 C712.147,205.1761 712.17,205.1151 712.2035,205.0601 " fill="#77B255" style="stroke:;stroke-width:0.0;stroke-dasharray:;"/><line style="stroke:#181818;stroke-width:1.5;" x1="629" x2="629" y1="118.2656" y2="207.5156"/><line style="stroke:#181818;stroke-width:1.5;" x1="784" x2="784" y1="64.1328" y2="84.1328"/><rect fill="#F1F1F1" height="34.1328" style="stroke:#181818;stroke-width:1.5;" width="50" x="759" y="84.1328"/><text fill="#000000" font-family="sans-serif" font-size="12" lengthAdjust="spacing" textLength="30" x="769" y="105.7344">other</text><line style="stroke:#181818;stroke-width:1.5;" x1="784" x2="794" y1="150.332" y2="150.332"/><rect fill="#F1F1F1" height="34.1328" style="stroke:#181818;stroke-width:1.5;" width="181" x="794" y="133.2656"/><a href="https://developer.mozilla.org/en-US/docs/Web/HTTP/Headers/Content-Security-Policy/upgrade-insecure-requests" target="_top" title="https://developer.mozilla.org/en-US/docs/Web/HTTP/Headers/Content-Security-Policy/upgrade-insecure-requests" xlink:actuate="onRequest" xlink:href="https://developer.mozilla.org/en-US/docs/Web/HTTP/Headers/Content-Security-Policy/upgrade-insecure-requests" xlink:show="new" xlink:title="https://developer.mozilla.org/en-US/docs/Web/HTTP/Headers/Content-Security-Policy/upgrade-insecure-requests" xlink:type="simple"><text fill="#0000FF" font-family="sans-serif" font-size="12" lengthAdjust="spacing" text-decoration="underline" textLength="161" x="804" y="154.8672">upgrade-insecure-requests</text></a><line style="stroke:#181818;stroke-width:1.5;" x1="784" x2="794" y1="202.1484" y2="202.1484"/><rect fill="#F1F1F1" height="39.5" style="stroke:#181818;stroke-width:1.5;" width="193" x="794" y="182.3984"/><a href="https://developer.mozilla.org/en-US/docs/Web/HTTP/Headers/Content-Security-Policy/require-trusted-types-for" target="_top" title="https://developer.mozilla.org/en-US/docs/Web/HTTP/Headers/Content-Security-Policy/require-trusted-types-for" xlink:actuate="onRequest" xlink:href="https://developer.mozilla.org/en-US/docs/Web/HTTP/Headers/Content-Security-Policy/require-trusted-types-for" xlink:show="new" xlink:title="https://developer.mozilla.org/en-US/docs/Web/HTTP/Headers/Content-Security-Policy/require-trusted-types-for" xlink:type="simple"><text fill="#0000FF" font-family="sans-serif" font-size="12" lengthAdjust="spacing" text-decoration="underline" textLength="151" x="804" y="209.3672">require-trusted-types-for</text></a><text fill="#000000" font-family="sans-serif" font-size="12" lengthAdjust="spacing" textLength="4" x="955" y="209.3672"> </text><path d="M966.2815,199.6054 L971.735,194.1509 L975.2155,197.6319 L969.7615,203.0859 " fill="#CCD6DD" style="stroke:;stroke-width:0.0;stroke-dasharray:;"/><path d="M963.0515,209.5979 C960.25,209.3984 959.75,207.4294 959.8175,206.3644 C959.9785,203.8294 967.618,198.0889 967.618,198.0889 L973.8765,199.0539 C973.877,199.0539 965.182,209.7499 963.0515,209.5979 " fill="#68E090" style="stroke:;stroke-width:0.0;stroke-dasharray:;"/><path d="M975.163,194.2524 C973.7025,192.7919 972.052,192.0739 971.477,192.6494 C971.4705,192.6559 971.466,192.6649 971.46,192.6714 C971.457,192.6744 971.4525,192.6754 971.4495,192.6784 L960.1475,203.9804 C959.4415,204.6864 959.0525,205.6254 959.0525,206.6244 C959.0525,207.6229 959.4415,208.5619 960.1475,209.2679 C960.854,209.9744 961.793,210.3629 962.7915,210.3629 C963.7905,210.3629 964.729,209.9744 965.435,209.2684 L976.737,197.9664 C976.7405,197.9629 976.7415,197.9584 976.7445,197.9549 C976.751,197.9489 976.7595,197.9449 976.766,197.9384 C977.3415,197.3634 976.6235,195.7129 975.163,194.2524 M964.375,208.2079 C963.952,208.6309 963.39,208.8634 962.792,208.8634 C962.194,208.8634 961.6315,208.6304 961.2085,208.2074 C960.7855,207.7844 960.5525,207.2224 960.5525,206.6239 C960.5525,206.0259 960.7855,205.4639 961.208,205.0409 L971.706,194.5434 C972.017,195.1154 972.486,195.7404 973.0805,196.3354 C973.675,196.9299 974.3005,197.3989 974.8725,197.7099 L964.375,208.2079 " fill="#8899A6" style="stroke:;stroke-width:0.0;stroke-dasharray:;"/><path d="M973.598,198.9704 C973.569,199.1599 972.2845,199.3459 970.7525,199.1419 C969.221,198.9379 968.0115,198.5304 968.051,198.2319 C968.091,197.9334 969.3645,197.8564 970.8965,198.0604 C972.4285,198.2644 973.644,198.6724 973.598,198.9704 M964.42,204.0219 C964.265,204.1769 964.0135,204.1769 963.8585,204.0219 C963.7035,203.8669 963.7035,203.6154 963.8585,203.4604 C964.0135,203.3054 964.265,203.3054 964.42,203.4604 C964.575,203.6154 964.575,203.8669 964.42,204.0219 M966.0785,205.3294 C965.825,205.5829 965.4145,205.5824 965.161,205.3294 C964.908,205.0764 964.908,204.6654 965.161,204.4124 C965.4145,204.1589 965.825,204.1594 966.078,204.4124 C966.3315,204.6654 966.332,205.0759 966.0785,205.3294 M966.917,202.6674 C966.679,202.9054 966.292,202.9054 966.054,202.6674 C965.816,202.4294 965.816,202.0429 966.054,201.8044 C966.292,201.5664 966.6785,201.5659 966.9165,201.8044 C967.1555,202.0429 967.1555,202.4294 966.917,202.6674 M963.483,207.0964 C963.1925,207.3869 962.721,207.3869 962.4305,207.0964 C962.1395,206.8054 962.14,206.3344 962.4305,206.0439 C962.721,205.7534 963.192,205.7534 963.483,206.0439 C963.7735,206.3344 963.774,206.8054 963.483,207.0964 M969.181,202.5174 C968.9745,202.7239 968.6395,202.7239 968.433,202.5174 C968.2265,202.3109 968.227,201.9759 968.4335,201.7694 C968.6405,201.5624 968.975,201.5624 969.1815,201.7689 C969.388,201.9759 969.388,202.3104 969.181,202.5174 M968.5775,200.3734 C968.4425,200.5084 968.2235,200.5084 968.088,200.3734 C967.953,200.2384 967.953,200.0194 968.088,199.8839 C968.223,199.7489 968.442,199.7484 968.5775,199.8839 C968.7125,200.0194 968.7125,200.2384 968.5775,200.3734 " fill="#17BF63" style="stroke:;stroke-width:0.0;stroke-dasharray:;"/><ellipse cx="972.5619" cy="205.9056" fill="#CCD6DD" rx="0.4186" ry="1.7136" style="stroke:#CCD6DD;stroke-width:1.5;"/><line style="stroke:#181818;stroke-width:1.5;" x1="784" x2="794" y1="256.6484" y2="256.6484"/><rect fill="#F1F1F1" height="39.5" style="stroke:#181818;stroke-width:1.5;" width="121" x="794" y="236.8984"/><a href="https://developer.mozilla.org/en-US/docs/Web/HTTP/Headers/Content-Security-Policy/trusted-types" target="_top" title="https://developer.mozilla.org/en-US/docs/Web/HTTP/Headers/Content-Security-Policy/trusted-types" xlink:actuate="onRequest" xlink:href="https://developer.mozilla.org/en-US/docs/Web/HTTP/Headers/Content-Security-Policy/trusted-types" xlink:show="new" xlink:title="https://developer.mozilla.org/en-US/docs/Web/HTTP/Headers/Content-Security-Policy/trusted-types" xlink:type="simple"><text fill="#0000FF" font-family="sans-serif" font-size="12" lengthAdjust="spacing" text-decoration="underline" textLength="79" x="804" y="263.8672">trusted-types</text></a><text fill="#000000" font-family="sans-serif" font-size="12" lengthAdjust="spacing" textLength="4" x="883" y="263.8672"> </text><path d="M894.2815,254.1054 L899.735,248.6509 L903.2155,252.1319 L897.7615,257.5859 " fill="#CCD6DD" style="stroke:;stroke-width:0.0;stroke-dasharray:;"/><path d="M891.0515,264.0979 C888.25,263.8984 887.75,261.9294 887.8175,260.8644 C887.9785,258.3294 895.618,252.5889 895.618,252.5889 L901.8765,253.5539 C901.877,253.5539 893.182,264.2499 891.0515,264.0979 " fill="#68E090" style="stroke:;stroke-width:0.0;stroke-dasharray:;"/><path d="M903.163,248.7524 C901.7025,247.2919 900.052,246.5739 899.477,247.1494 C899.4705,247.1559 899.466,247.1649 899.46,247.1714 C899.457,247.1744 899.4525,247.1754 899.4495,247.1784 L888.1475,258.4804 C887.4415,259.1864 887.0525,260.1254 887.0525,261.1244 C887.0525,262.1229 887.4415,263.0619 888.1475,263.7679 C888.854,264.4744 889.793,264.8629 890.7915,264.8629 C891.7905,264.8629 892.729,264.4744 893.435,263.7684 L904.737,252.4664 C904.7405,252.4629 904.7415,252.4584 904.7445,252.4549 C904.751,252.4489 904.7595,252.4449 904.766,252.4384 C905.3415,251.8634 904.6235,250.2129 903.163,248.7524 M892.375,262.7079 C891.952,263.1309 891.39,263.3634 890.792,263.3634 C890.194,263.3634 889.6315,263.1304 889.2085,262.7074 C888.7855,262.2844 888.5525,261.7224 888.5525,261.1239 C888.5525,260.5259 888.7855,259.9639 889.208,259.5409 L899.706,249.0434 C900.017,249.6154 900.486,250.2404 901.0805,250.8354 C901.675,251.4299 902.3005,251.8989 902.8725,252.2099 L892.375,262.7079 " fill="#8899A6" style="stroke:;stroke-width:0.0;stroke-dasharray:;"/><path d="M901.598,253.4704 C901.569,253.6599 900.2845,253.8459 898.7525,253.6419 C897.221,253.4379 896.0115,253.0304 896.051,252.7319 C896.091,252.4334 897.3645,252.3564 898.8965,252.5604 C900.4285,252.7644 901.644,253.1724 901.598,253.4704 M892.42,258.5219 C892.265,258.6769 892.0135,258.6769 891.8585,258.5219 C891.7035,258.3669 891.7035,258.1154 891.8585,257.9604 C892.0135,257.8054 892.265,257.8054 892.42,257.9604 C892.575,258.1154 892.575,258.3669 892.42,258.5219 M894.0785,259.8294 C893.825,260.0829 893.4145,260.0824 893.161,259.8294 C892.908,259.5764 892.908,259.1654 893.161,258.9124 C893.4145,258.6589 893.825,258.6594 894.078,258.9124 C894.3315,259.1654 894.332,259.5759 894.0785,259.8294 M894.917,257.1674 C894.679,257.4054 894.292,257.4054 894.054,257.1674 C893.816,256.9294 893.816,256.5429 894.054,256.3044 C894.292,256.0664 894.6785,256.0659 894.9165,256.3044 C895.1555,256.5429 895.1555,256.9294 894.917,257.1674 M891.483,261.5964 C891.1925,261.8869 890.721,261.8869 890.4305,261.5964 C890.1395,261.3054 890.14,260.8344 890.4305,260.5439 C890.721,260.2534 891.192,260.2534 891.483,260.5439 C891.7735,260.8344 891.774,261.3054 891.483,261.5964 M897.181,257.0174 C896.9745,257.2239 896.6395,257.2239 896.433,257.0174 C896.2265,256.8109 896.227,256.4759 896.4335,256.2694 C896.6405,256.0624 896.975,256.0624 897.1815,256.2689 C897.388,256.4759 897.388,256.8104 897.181,257.0174 M896.5775,254.8734 C896.4425,255.0084 896.2235,255.0084 896.088,254.8734 C895.953,254.7384 895.953,254.5194 896.088,254.3839 C896.223,254.2489 896.442,254.2484 896.5775,254.3839 C896.7125,254.5194 896.7125,254.7384 896.5775,254.8734 " fill="#17BF63" style="stroke:;stroke-width:0.0;stroke-dasharray:;"/><ellipse cx="900.5619" cy="260.4056" fill="#CCD6DD" rx="0.4186" ry="1.7136" style="stroke:#CCD6DD;stroke-width:1.5;"/><line style="stroke:#181818;stroke-width:1.5;" x1="784" x2="784" y1="118.2656" y2="256.6484"/><line style="stroke:#181818;stroke-width:1.5;" x1="125" x2="784" y1="64.1328" y2="64.1328"/><rect fill="#FFFFDD" height="34.1328" style="stroke:#181818;stroke-width:1.5;" width="75" x="417" y="10"/><a href="https://developer.mozilla.org/en-US/docs/Web/HTTP/Headers/Content-Security-Policy" target="_top" title="https://developer.mozilla.org/en-US/docs/Web/HTTP/Headers/Content-Security-Policy" xlink:actuate="onRequest" xlink:href="https://developer.mozilla.org/en-US/docs/Web/HTTP/Headers/Content-Security-Policy" xlink:show="new" xlink:title="https://developer.mozilla.org/en-US/docs/Web/HTTP/Headers/Content-Security-Policy" xlink:type="simple"><text fill="#0000FF" font-family="sans-serif" font-size="12" lengthAdjust="spacing" text-decoration="underline" textLength="55" x="427" y="31.6016">directives</text></a><line style="stroke:#181818;stroke-width:1.5;" x1="454.5" x2="454.5" y1="44.1328" y2="64.1328"/><!--MD5=[1e5123d5bedda754908d64d2665d6e70]
@startwbs CSP-Directives
*[#FFFFDD] [[https://developer.mozilla.org/en-US/docs/Web/HTTP/Headers/Content-Security-Policy directives]]
** [[https://developer.mozilla.org/en-US/docs/Glossary/Fetch_directive fetch]]
+++ [[https://developer.mozilla.org/en-US/docs/Web/HTTP/Headers/Content-Security-Policy/connect-src connect-src]]
- - -[#pink] [[https://developer.mozilla.org/en-US/docs/Web/HTTP/Headers/Content-Security-Policy/default-src default-src]]
*** [[https://developer.mozilla.org/en-US/docs/Web/HTTP/Headers/Content-Security-Policy/font-src font-src]]
- - - [[https://developer.mozilla.org/en-US/docs/Web/HTTP/Headers/Content-Security-Policy/frame-src frame-src]]
*** [[https://developer.mozilla.org/en-US/docs/Web/HTTP/Headers/Content-Security-Policy/img-src img-src]]
- - - [[https://developer.mozilla.org/en-US/docs/Web/HTTP/Headers/Content-Security-Policy/manifest-src manifest-src]]
*** [[https://developer.mozilla.org/en-US/docs/Web/HTTP/Headers/Content-Security-Policy/media-src media-src]]
- - - [[https://developer.mozilla.org/en-US/docs/Web/HTTP/Headers/Content-Security-Policy/object-src object-src]]
*** [[https://developer.mozilla.org/en-US/docs/Web/HTTP/Headers/Content-Security-Policy/prefetch-src prefetch-src]] <:test_tube:>
- - - [[https://developer.mozilla.org/en-US/docs/Web/HTTP/Headers/Content-Security-Policy/script-src script-src]]
*** [[ script-src-elem]]
- - - [[ script-src-attr]]
*** [[https://developer.mozilla.org/en-US/docs/Web/HTTP/Headers/Content-Security-Policy/style-src style-src]]
- - - [[https://developer.mozilla.org/en-US/docs/Web/HTTP/Headers/Content-Security-Policy/style-src-elem style-src-elem]]
*** [[https://developer.mozilla.org/en-US/docs/Web/HTTP/Headers/Content-Security-Policy/style-src-attr style-src-attr]]
- - - [[https://developer.mozilla.org/en-US/docs/Web/HTTP/Headers/Content-Security-Policy/worker-src worker-src]]
** document
*** [[https://developer.mozilla.org/en-US/docs/Web/HTTP/Headers/Content-Security-Policy/base-uri base-uri]]
*** [[https://developer.mozilla.org/en-US/docs/Web/HTTP/Headers/Content-Security-Policy/sandbox sandbox]]
** navigation
*** [[https://developer.mozilla.org/en-US/docs/Web/HTTP/Headers/Content-Security-Policy/form-action form-action]]
*** [[https://developer.mozilla.org/en-US/docs/Web/HTTP/Headers/Content-Security-Policy/frame-ancestors frame-ancestors]]
*** [[ navigate-to]] <:test_tube:>
** reporting
*** [[https://developer.mozilla.org/en-US/docs/Web/HTTP/Headers/Content-Security-Policy/report-to report-to]] <:warning:>
*** [[https://developer.mozilla.org/en-US/docs/Web/HTTP/Headers/Content-Security-Policy/report-uri report-uri]] <:recycle:>
** other
*** [[https://developer.mozilla.org/en-US/docs/Web/HTTP/Headers/Content-Security-Policy/upgrade-insecure-requests upgrade-insecure-requests]]
*** [[https://developer.mozilla.org/en-US/docs/Web/HTTP/Headers/Content-Security-Policy/require-trusted-types-for require-trusted-types-for]] <:test_tube:>
*** [[https://developer.mozilla.org/en-US/docs/Web/HTTP/Headers/Content-Security-Policy/trusted-types trusted-types]] <:test_tube:>
@endwbs

PlantUML version 1.2022.7(Tue Aug 23 01:01:30 SGT 2022)
(GPL source distribution)
Java Runtime: OpenJDK Runtime Environment
JVM: OpenJDK 64-Bit Server VM
Default Encoding: UTF-8
Language: en
Country: SG
--></g></svg>